<svg xmlns="http://www.w3.org/2000/svg" xmlns:xlink="http://www.w3.org/1999/xlink" width="500" zoomAndPan="magnify" viewBox="0 0 375 374.999991" height="500" preserveAspectRatio="xMidYMid meet" version="1.0"><defs><clipPath id="b4e7b12cc4"><path d="M 43 20.507812 L 332 20.507812 L 332 102 L 43 102 Z M 43 20.507812 " clip-rule="nonzero"/></clipPath><clipPath id="0e9aa13082"><path d="M 106 175 L 268 175 L 268 354.257812 L 106 354.257812 Z M 106 175 " clip-rule="nonzero"/></clipPath></defs><path fill="#ad7c4d" d="M 331.261719 112.574219 L 331.261719 231.371094 C 331.261719 236.472656 327.820312 241.035156 322.847656 242.40625 L 193.492188 278.597656 C 189.398438 279.742188 185.125 279.742188 181.027344 278.597656 L 51.671875 242.40625 C 46.722656 241.035156 43.257812 236.472656 43.257812 231.371094 L 43.257812 112.574219 L 187.261719 83.828125 L 331.261719 112.574219 " fill-opacity="1" fill-rule="nonzero"/><path fill="#ca9060" d="M 331.261719 60.808594 L 351.222656 94.167969 C 358.535156 106.347656 352.257812 122.105469 338.574219 125.949219 L 237.59375 154.203125 C 228.277344 156.8125 218.355469 152.878906 213.359375 144.5625 L 187.261719 101.089844 L 161.160156 144.5625 C 156.164062 152.878906 146.242188 156.8125 136.925781 154.203125 L 35.945312 125.949219 C 22.265625 122.105469 15.988281 106.347656 23.300781 94.167969 L 43.257812 60.808594 L 331.261719 60.808594 " fill-opacity="1" fill-rule="nonzero"/><g clip-path="url(#b4e7b12cc4)"><path fill="#976640" d="M 43.257812 60.808594 L 187.261719 101.089844 L 331.261719 60.808594 L 191.917969 21.160156 C 188.878906 20.304688 185.640625 20.304688 182.601562 21.160156 L 43.257812 60.808594 " fill-opacity="1" fill-rule="nonzero"/></g><g clip-path="url(#0e9aa13082)"><path fill="#dcedfa" d="M 250.621094 354.257812 L 123.898438 354.257812 C 114.359375 354.257812 106.617188 346.523438 106.617188 336.992188 L 106.617188 193.136719 C 106.617188 183.605469 114.359375 175.871094 123.898438 175.871094 L 250.621094 175.871094 C 260.160156 175.871094 267.902344 183.605469 267.902344 193.136719 L 267.902344 336.992188 C 267.902344 346.523438 260.160156 354.257812 250.621094 354.257812 " fill-opacity="1" fill-rule="nonzero"/></g><path fill="#976640" d="M 193.019531 110.664062 L 193.019531 175.871094 L 181.5 175.871094 L 181.5 110.664062 L 187.261719 101.066406 L 193.019531 110.664062 " fill-opacity="1" fill-rule="nonzero"/><path fill="#51c28e" d="M 141.179688 227.660156 C 139.695312 227.660156 138.230469 227.101562 137.105469 225.976562 L 131.347656 220.222656 C 129.097656 217.972656 129.097656 214.332031 131.347656 212.085938 C 133.597656 209.835938 137.242188 209.835938 139.492188 212.085938 L 141.179688 213.769531 L 154.386719 200.574219 C 156.636719 198.328125 160.28125 198.328125 162.53125 200.574219 C 164.78125 202.824219 164.78125 206.464844 162.53125 208.714844 L 145.253906 225.976562 C 144.128906 227.101562 142.664062 227.660156 141.179688 227.660156 " fill-opacity="1" fill-rule="nonzero"/><path fill="#93b6c8" d="M 239.101562 221.90625 L 181.5 221.90625 C 178.328125 221.90625 175.742188 219.324219 175.742188 216.152344 C 175.742188 212.984375 178.328125 210.398438 181.5 210.398438 L 239.101562 210.398438 C 242.273438 210.398438 244.863281 212.984375 244.863281 216.152344 C 244.863281 219.324219 242.273438 221.90625 239.101562 221.90625 " fill-opacity="1" fill-rule="nonzero"/><path fill="#51c28e" d="M 141.179688 262.1875 C 139.695312 262.1875 138.230469 261.625 137.105469 260.5 L 131.347656 254.746094 C 129.097656 252.5 129.097656 248.859375 131.347656 246.609375 C 133.597656 244.363281 137.242188 244.363281 139.492188 246.609375 L 141.179688 248.296875 L 154.386719 235.101562 C 156.636719 232.855469 160.28125 232.855469 162.53125 235.101562 C 164.78125 237.347656 164.78125 240.992188 162.53125 243.238281 L 145.253906 260.5 C 144.128906 261.625 142.664062 262.1875 141.179688 262.1875 " fill-opacity="1" fill-rule="nonzero"/><path fill="#93b6c8" d="M 239.101562 256.433594 L 181.5 256.433594 C 178.328125 256.433594 175.742188 253.847656 175.742188 250.679688 C 175.742188 247.507812 178.328125 244.925781 181.5 244.925781 L 239.101562 244.925781 C 242.273438 244.925781 244.863281 247.507812 244.863281 250.679688 C 244.863281 253.847656 242.273438 256.433594 239.101562 256.433594 " fill-opacity="1" fill-rule="nonzero"/><path fill="#51c28e" d="M 141.179688 296.714844 C 139.695312 296.714844 138.230469 296.152344 137.105469 295.027344 L 131.347656 289.273438 C 129.097656 287.027344 129.097656 283.382812 131.347656 281.136719 C 133.597656 278.886719 137.242188 278.886719 139.492188 281.136719 L 141.179688 282.820312 L 154.386719 269.628906 C 156.636719 267.378906 160.28125 267.378906 162.53125 269.628906 C 164.78125 271.875 164.78125 275.515625 162.53125 277.765625 L 145.253906 295.027344 C 144.128906 296.152344 142.664062 296.714844 141.179688 296.714844 " fill-opacity="1" fill-rule="nonzero"/><path fill="#93b6c8" d="M 239.101562 290.960938 L 181.5 290.960938 C 178.328125 290.960938 175.742188 288.375 175.742188 285.203125 C 175.742188 282.035156 178.328125 279.449219 181.5 279.449219 L 239.101562 279.449219 C 242.273438 279.449219 244.863281 282.035156 244.863281 285.203125 C 244.863281 288.375 242.273438 290.960938 239.101562 290.960938 " fill-opacity="1" fill-rule="nonzero"/><path fill="#51c28e" d="M 141.179688 331.238281 C 139.695312 331.238281 138.230469 330.675781 137.105469 329.554688 L 131.347656 323.800781 C 129.097656 321.550781 129.097656 317.910156 131.347656 315.664062 C 133.597656 313.414062 137.242188 313.414062 139.492188 315.664062 L 141.179688 317.347656 L 154.386719 304.152344 C 156.636719 301.90625 160.28125 301.90625 162.53125 304.152344 C 164.78125 306.402344 164.78125 310.042969 162.53125 312.289062 L 145.253906 329.554688 C 144.128906 330.675781 142.664062 331.238281 141.179688 331.238281 " fill-opacity="1" fill-rule="nonzero"/><path fill="#93b6c8" d="M 239.101562 325.484375 L 181.5 325.484375 C 178.328125 325.484375 175.742188 322.898438 175.742188 319.730469 C 175.742188 316.5625 178.328125 313.976562 181.5 313.976562 L 239.101562 313.976562 C 242.273438 313.976562 244.863281 316.5625 244.863281 319.730469 C 244.863281 322.898438 242.273438 325.484375 239.101562 325.484375 " fill-opacity="1" fill-rule="nonzero"/></svg>