<svg xmlns="http://www.w3.org/2000/svg" xmlns:xlink="http://www.w3.org/1999/xlink" width="500" zoomAndPan="magnify" viewBox="0 0 375 374.999991" height="500" preserveAspectRatio="xMidYMid meet" version="1.0"><defs><clipPath id="712d1d702b"><path d="M 9.375 56.6875 L 349.875 56.6875 L 349.875 293.6875 L 9.375 293.6875 Z M 9.375 56.6875 " clip-rule="nonzero"/></clipPath><clipPath id="4bc45b65e1"><path d="M 45 56.6875 L 349.875 56.6875 L 349.875 293.6875 L 45 293.6875 Z M 45 56.6875 " clip-rule="nonzero"/></clipPath><clipPath id="a47c6b002c"><path d="M 9.375 104 L 306 104 L 306 279 L 9.375 279 Z M 9.375 104 " clip-rule="nonzero"/></clipPath></defs><g clip-path="url(#712d1d702b)"><path fill="#ffe073" d="M 248.097656 56.886719 C 259.714844 56.886719 271.335938 56.839844 282.953125 56.90625 C 288.03125 56.9375 293.105469 57.273438 298.167969 57.746094 C 301.914062 58.09375 305.640625 58.515625 309.347656 59.109375 C 316.800781 60.304688 323.804688 62.722656 330.261719 66.722656 C 335.304688 69.84375 338.605469 74.289062 340.800781 79.707031 C 342.765625 84.558594 343.839844 89.640625 344.921875 94.726562 C 345.882812 99.242188 346.578125 103.800781 347.078125 108.386719 C 347.394531 111.285156 347.570312 114.203125 347.816406 117.109375 C 348.359375 123.511719 348.460938 129.9375 348.828125 136.347656 C 349.230469 143.351562 349.441406 150.355469 349.425781 157.367188 C 349.421875 158.644531 349.644531 159.910156 349.621094 161.179688 C 349.476562 169.695312 348.769531 178.136719 346.054688 186.289062 C 343.460938 194.070312 339.859375 201.289062 334.515625 207.578125 C 331.074219 211.621094 327.476562 215.503906 323.632812 219.179688 C 317.5625 224.980469 311.953125 231.222656 307.214844 238.183594 C 302.101562 245.703125 298.140625 253.777344 296.066406 262.691406 C 295.125 266.722656 294.472656 270.800781 293.9375 274.90625 C 293.234375 280.265625 292.46875 285.621094 291.4375 290.929688 C 291.078125 292.777344 289.980469 293.625 288.492188 293.265625 C 287.707031 293.074219 287.253906 292.460938 286.816406 291.871094 C 285.460938 290.035156 284.132812 288.179688 282.792969 286.332031 C 279.390625 281.636719 275.742188 277.167969 271.578125 273.117188 C 265.121094 266.839844 257.507812 262.644531 248.910156 260.097656 C 240.570312 257.628906 232.0625 255.988281 223.488281 254.609375 C 217.585938 253.664062 211.683594 252.753906 205.746094 252.046875 C 201.441406 251.53125 197.171875 250.746094 192.863281 250.277344 C 188.761719 249.835938 184.65625 249.425781 180.53125 249.167969 C 177.421875 248.972656 174.304688 248.777344 171.207031 248.363281 C 169.796875 248.175781 168.359375 248.164062 166.9375 248.007812 C 165.042969 247.804688 163.136719 247.738281 161.234375 247.609375 C 161.023438 247.597656 160.8125 247.585938 160.601562 247.554688 C 159.976562 247.460938 159.613281 247.203125 159.972656 246.503906 C 160.117188 246.222656 160.234375 245.921875 160.351562 245.625 C 162.269531 240.703125 162.851562 235.671875 161.5625 230.492188 C 161.28125 229.355469 160.84375 228.265625 160.273438 227.246094 C 159.957031 226.679688 159.929688 226.195312 160.25 225.609375 C 162.824219 220.917969 162.90625 215.792969 162.429688 210.699219 C 162.039062 206.503906 160.449219 202.667969 157.417969 199.578125 C 157.160156 199.316406 156.992188 198.929688 156.695312 198.738281 C 154.992188 197.644531 155.292969 196.28125 155.859375 194.640625 C 158.589844 186.734375 154.464844 179.398438 149.457031 175.566406 C 145.671875 172.667969 141.285156 171.453125 136.597656 171.042969 C 134.640625 170.871094 132.679688 170.679688 130.730469 170.839844 C 125.535156 171.269531 120.339844 171.035156 115.148438 171.058594 C 113.554688 171.066406 111.996094 170.765625 110.449219 170.367188 C 108.382812 169.832031 107.382812 168.414062 107.113281 166.386719 C 106.890625 164.707031 106.683594 163.023438 106.507812 161.339844 C 106.078125 157.226562 105.605469 153.121094 105.28125 149 C 104.992188 145.339844 104.570312 141.710938 103.597656 138.171875 C 102.476562 134.082031 100.324219 130.527344 97.246094 127.671875 C 93.097656 123.824219 88.082031 123.070312 82.699219 124.320312 C 76.734375 125.699219 72.867188 129.539062 70.558594 135.046875 C 68.527344 139.898438 67.070312 144.957031 65.398438 149.9375 C 63.175781 156.5625 60.410156 162.914062 56.679688 168.832031 C 54.875 171.695312 52.675781 174.183594 49.960938 176.203125 C 49.664062 176.421875 49.351562 176.625 49.03125 176.808594 C 48.207031 177.277344 48.050781 177.207031 47.90625 176.304688 C 47.699219 174.996094 47.453125 173.691406 47.3125 172.375 C 46.867188 168.207031 46.480469 164.039062 46.226562 159.851562 C 46.03125 156.613281 46.136719 153.367188 45.90625 150.140625 C 45.691406 147.109375 45.621094 144.082031 45.757812 141.0625 C 45.96875 136.292969 46.097656 131.523438 46.527344 126.761719 C 47.144531 119.917969 48.371094 113.207031 50.167969 106.597656 C 51.378906 102.136719 52.816406 97.757812 55.113281 93.695312 C 57.964844 88.644531 61.933594 84.652344 66.589844 81.296875 C 71.480469 77.769531 76.84375 75.117188 82.394531 72.824219 C 91.722656 68.972656 101.324219 66.003906 111.160156 63.785156 C 115.859375 62.726562 120.609375 61.980469 125.378906 61.304688 C 129.988281 60.652344 134.628906 60.289062 139.253906 59.796875 C 141.097656 59.601562 142.949219 59.539062 144.800781 59.421875 C 149.660156 59.121094 154.519531 58.820312 159.378906 58.523438 C 159.484375 58.515625 159.589844 58.511719 159.695312 58.507812 C 164.039062 58.378906 168.386719 58.339844 172.726562 58.085938 C 176.539062 57.863281 180.359375 57.980469 184.164062 57.730469 C 187.34375 57.519531 190.527344 57.652344 193.695312 57.457031 C 198.304688 57.167969 202.921875 57.304688 207.527344 57.117188 C 218.660156 56.660156 229.800781 56.949219 240.933594 56.847656 C 243.320312 56.828125 245.710938 56.84375 248.097656 56.84375 C 248.097656 56.859375 248.097656 56.871094 248.097656 56.886719 Z M 259.984375 115.460938 C 267.566406 115.5 275.148438 115.683594 282.734375 115.332031 C 288.191406 115.078125 293.628906 114.640625 299.070312 114.230469 C 300.632812 114.113281 300.683594 114.015625 300.441406 112.519531 C 300.398438 112.257812 300.371094 111.992188 300.339844 111.726562 C 300.113281 109.726562 299.863281 107.722656 299.679688 105.714844 C 299.613281 104.988281 299.371094 104.625 298.613281 104.710938 C 298.347656 104.742188 298.082031 104.71875 297.816406 104.722656 C 291.9375 104.824219 286.058594 104.898438 280.179688 105.03125 C 271.375 105.230469 262.574219 104.773438 253.773438 104.761719 C 244.332031 104.75 234.890625 104.519531 225.457031 105.011719 C 219.953125 105.300781 214.441406 105.496094 208.9375 105.726562 C 207.980469 105.765625 207.023438 105.730469 206.074219 105.800781 C 200.152344 106.246094 194.222656 106.515625 188.289062 106.617188 C 178.640625 106.78125 168.984375 106.488281 159.335938 107.023438 C 153.996094 107.320312 148.652344 107.671875 143.304688 107.839844 C 140.171875 107.9375 137.082031 108.386719 133.96875 108.667969 C 129.433594 109.082031 124.90625 109.730469 120.339844 109.472656 C 117.851562 109.328125 115.367188 109.207031 112.875 109.199219 C 111.066406 109.191406 109.277344 109.375 107.511719 109.753906 C 106.125 110.050781 105.972656 110.3125 106.082031 111.695312 C 106.230469 113.550781 106.371094 115.402344 106.46875 117.257812 C 106.550781 118.800781 106.660156 118.976562 108.214844 119.074219 C 109.910156 119.179688 111.605469 119.292969 113.296875 119.300781 C 117.75 119.316406 122.199219 119.390625 126.65625 119.160156 C 131.898438 118.894531 137.148438 118.882812 142.382812 118.46875 C 146.871094 118.117188 151.367188 117.824219 155.847656 117.375 C 161.386719 116.816406 166.941406 116.546875 172.496094 116.273438 C 178.792969 115.960938 185.101562 115.800781 191.410156 115.632812 C 196.710938 115.492188 202.011719 115.398438 207.3125 115.339844 C 218.238281 115.226562 229.164062 115.179688 240.089844 115.433594 C 246.71875 115.585938 253.355469 115.460938 259.984375 115.460938 Z M 187.167969 144.347656 C 182.03125 144.25 177 144.574219 171.964844 144.71875 C 169.851562 144.78125 167.734375 144.925781 165.617188 145.035156 C 160.539062 145.296875 155.460938 145.597656 150.382812 145.871094 C 147.578125 146.023438 144.769531 146.125 141.964844 146.292969 C 140.484375 146.378906 139.011719 146.546875 137.535156 146.6875 C 133.527344 147.058594 129.523438 147.515625 125.511719 147.78125 C 121.914062 148.019531 118.304688 148.046875 114.703125 148.164062 C 112.898438 148.222656 112.722656 148.410156 112.902344 150.269531 C 113.066406 151.960938 113.292969 153.644531 113.441406 155.335938 C 113.578125 156.871094 113.90625 157.289062 115.464844 157.320312 C 117.320312 157.355469 119.183594 157.339844 121.03125 157.214844 C 125.734375 156.886719 130.429688 156.40625 135.136719 156.140625 C 140.75 155.820312 146.371094 155.726562 151.996094 155.71875 C 158.78125 155.707031 165.570312 155.839844 172.359375 155.488281 C 178.074219 155.191406 183.800781 154.96875 189.523438 154.878906 C 200.714844 154.707031 211.90625 154.679688 223.097656 154.535156 C 228.082031 154.46875 233.0625 154.695312 238.046875 154.574219 C 246.371094 154.375 254.699219 154.589844 263.023438 154.21875 C 269.0625 153.949219 275.101562 153.792969 281.125 153.242188 C 286.398438 152.757812 291.679688 152.339844 296.957031 151.867188 C 298.433594 151.734375 299.898438 151.496094 301.375 151.351562 C 302.117188 151.277344 302.347656 150.910156 302.324219 150.195312 C 302.265625 148.441406 302.265625 146.6875 302.242188 144.933594 C 302.21875 143.371094 302.21875 143.363281 300.652344 143.355469 C 300.015625 143.351562 299.367188 143.3125 298.746094 143.410156 C 296.15625 143.800781 293.558594 143.636719 290.960938 143.648438 C 269.375 143.757812 247.785156 143.46875 226.203125 144.203125 C 218.628906 144.460938 211.039062 144.421875 203.457031 144.613281 C 197.992188 144.75 192.539062 144.253906 187.167969 144.347656 Z M 173.5 199.148438 C 176.417969 199.105469 179.332031 198.945312 182.242188 198.917969 C 191.46875 198.824219 200.671875 198.402344 209.863281 197.601562 C 215.667969 197.09375 221.484375 196.71875 227.300781 196.332031 C 233.488281 195.917969 239.691406 195.847656 245.890625 195.714844 C 259.933594 195.410156 273.996094 196.03125 288.027344 194.996094 C 291.621094 194.730469 295.21875 194.5625 298.8125 194.285156 C 300.550781 194.148438 302.285156 193.902344 304.011719 193.632812 C 305.644531 193.375 305.722656 193.207031 305.734375 191.582031 C 305.746094 189.984375 305.605469 188.398438 305.480469 186.8125 C 305.371094 185.421875 305.191406 185.207031 303.773438 185.125 C 303.402344 185.101562 303.03125 185.121094 302.660156 185.117188 C 292.160156 185.019531 281.671875 185.203125 271.183594 185.703125 C 265.785156 185.957031 260.382812 186.101562 254.984375 186.359375 C 250.910156 186.554688 246.839844 186.785156 242.765625 187 C 237.527344 187.273438 232.285156 187.515625 227.042969 187.640625 C 220.101562 187.808594 213.15625 187.894531 206.210938 187.941406 C 200.855469 187.976562 195.507812 188.296875 190.15625 188.4375 C 184.492188 188.582031 178.855469 189.320312 173.183594 189.335938 C 170.835938 189.339844 168.550781 189.8125 166.285156 190.367188 C 165.164062 190.640625 165.035156 190.839844 165.082031 192.039062 C 165.15625 193.839844 165.28125 195.640625 165.359375 197.445312 C 165.429688 199.027344 165.496094 199.128906 167.136719 199.144531 C 169.257812 199.164062 171.378906 199.148438 173.5 199.148438 Z M 148.195312 193.136719 C 148.226562 195.410156 147.6875 197.5625 146.695312 199.589844 C 146.34375 200.308594 146.429688 200.683594 147.109375 201.117188 C 150.976562 203.589844 152.753906 207.292969 153.292969 211.738281 C 153.617188 214.386719 153.753906 217.015625 153.308594 219.664062 C 152.921875 221.964844 152.15625 224.09375 150.644531 225.875 C 150.109375 226.503906 150.203125 226.921875 150.601562 227.53125 C 154.898438 234.089844 154.523438 240.734375 150.835938 247.378906 C 150.0625 248.765625 149.003906 249.980469 147.707031 250.949219 C 147.410156 251.167969 147.152344 251.445312 146.859375 251.671875 C 146.1875 252.1875 146.140625 252.730469 146.617188 253.445312 C 147.484375 254.738281 147.925781 256.195312 148.226562 257.730469 C 148.753906 260.394531 148.164062 262.894531 147.273438 265.363281 C 145.726562 269.636719 142.464844 271.925781 138.277344 273.1875 C 133.445312 274.644531 128.492188 275.5 123.535156 276.335938 C 120.039062 276.925781 116.535156 277.503906 113.011719 277.84375 C 109.480469 278.183594 105.925781 278.25 102.375 278.351562 C 97.230469 278.496094 92.09375 278.375 86.964844 278.167969 C 83.253906 278.015625 79.539062 278.132812 75.835938 277.925781 C 71.453125 277.675781 67.070312 277.351562 62.6875 277.074219 C 61.949219 277.027344 61.203125 277.039062 60.460938 277.042969 C 56.640625 277.070312 52.84375 276.726562 49.054688 276.34375 C 47.175781 276.152344 46.765625 275.597656 46.636719 273.675781 C 46.273438 268.269531 46.140625 262.855469 45.902344 257.449219 C 45.699219 252.835938 45.46875 248.226562 45.277344 243.613281 C 45.066406 238.628906 44.785156 233.648438 44.648438 228.660156 C 44.550781 225.109375 44.273438 221.5625 44.046875 218.015625 C 43.742188 213.25 43.484375 208.484375 43.070312 203.726562 C 42.71875 199.660156 42.4375 195.585938 42.167969 191.511719 C 42.136719 191.035156 42.136719 190.554688 42.15625 190.078125 C 42.234375 188.144531 42.679688 187.675781 44.550781 187.375 C 49.539062 186.5625 53.90625 184.445312 57.765625 181.175781 C 63.179688 176.585938 66.753906 170.792969 69.164062 164.1875 C 71.347656 158.199219 73.355469 152.160156 75.289062 146.085938 C 76.257812 143.042969 77.519531 140.117188 79.449219 137.53125 C 80.21875 136.503906 81.132812 135.609375 82.113281 134.796875 C 84.527344 132.796875 89.492188 132.652344 92.40625 136.558594 C 93.925781 138.59375 94.730469 140.953125 95.328125 143.394531 C 96.117188 146.601562 96.394531 149.871094 96.65625 153.15625 C 96.902344 156.21875 97.25 159.277344 97.644531 162.328125 C 98.078125 165.695312 98.367188 169.078125 98.507812 172.46875 C 98.59375 174.496094 99.328125 176.171875 100.886719 177.484375 C 101.589844 178.078125 102.359375 178.53125 103.253906 178.734375 C 104.804688 179.09375 106.367188 179.378906 107.964844 179.375 C 112.210938 179.363281 116.460938 179.480469 120.695312 179.289062 C 123.875 179.144531 127.058594 179.199219 130.226562 178.984375 C 131.921875 178.867188 133.609375 178.757812 135.304688 178.75 C 140.722656 178.722656 144.46875 181.253906 146.632812 186.195312 C 147.65625 188.539062 148.175781 190.886719 148.195312 193.136719 Z M 34.207031 277.003906 C 34.417969 276.996094 34.628906 276.992188 34.839844 276.984375 C 36.085938 276.921875 36.238281 276.824219 36.054688 275.566406 C 35.84375 274.136719 35.878906 272.703125 35.726562 271.28125 C 35.15625 266.054688 34.816406 260.8125 34.621094 255.570312 C 34.464844 251.269531 34.285156 246.972656 34.203125 242.667969 C 34.160156 240.335938 34.089844 238 33.984375 235.664062 C 33.769531 230.734375 33.605469 225.800781 33.296875 220.871094 C 33.015625 216.371094 32.871094 211.859375 32.535156 207.363281 C 32.410156 205.722656 32.355469 204.078125 32.207031 202.4375 C 31.855469 198.636719 31.304688 194.851562 31.300781 191.023438 C 31.300781 188.960938 31.277344 188.980469 29.167969 188.949219 C 26.042969 188.90625 22.917969 188.933594 19.789062 188.730469 C 16.945312 188.546875 14.066406 188.363281 11.265625 189.230469 C 10.039062 189.613281 9.992188 189.59375 9.980469 190.832031 C 9.933594 194.921875 9.949219 199.007812 9.757812 203.097656 C 9.617188 206.113281 9.660156 209.144531 9.9375 212.171875 C 10.199219 215.023438 10.058594 217.898438 10.242188 220.765625 C 10.492188 224.792969 10.324219 228.835938 10.59375 232.871094 C 10.816406 236.257812 10.847656 239.660156 11.039062 243.054688 C 11.277344 247.289062 11.722656 251.515625 11.84375 255.753906 C 11.988281 260.585938 12.167969 265.410156 12.59375 270.222656 C 12.75 271.964844 12.980469 273.699219 13.242188 275.429688 C 13.421875 276.628906 13.761719 276.855469 14.976562 277.070312 C 16.929688 277.421875 18.894531 277.148438 20.78125 277.269531 C 25.300781 277.179688 29.753906 277.089844 34.207031 277.003906 Z M 282.734375 115.332031 C 288.191406 115.078125 293.628906 114.640625 299.070312 114.230469 C 300.632812 114.113281 300.683594 114.015625 300.441406 112.519531 C 300.398438 112.257812 300.371094 111.992188 300.339844 111.726562 C 300.113281 109.726562 299.863281 107.722656 299.679688 105.714844 C 299.613281 104.988281 299.371094 104.625 298.613281 104.710938 C 298.347656 104.742188 298.082031 104.71875 297.816406 104.722656 C 291.9375 104.824219 286.058594 104.898438 280.179688 105.03125 C 271.375 105.230469 262.574219 104.773438 253.773438 104.761719 C 244.332031 104.75 234.890625 104.519531 225.457031 105.011719 C 219.953125 105.300781 214.441406 105.496094 208.9375 105.726562 C 207.980469 105.765625 207.023438 105.730469 206.074219 105.800781 C 200.152344 106.246094 194.222656 106.515625 188.289062 106.617188 C 178.640625 106.78125 168.984375 106.488281 159.335938 107.023438 C 153.996094 107.320312 148.652344 107.671875 143.304688 107.839844 C 140.171875 107.9375 137.082031 108.386719 133.96875 108.667969 C 129.433594 109.082031 124.90625 109.730469 120.339844 109.472656 C 117.851562 109.328125 115.367188 109.207031 112.875 109.199219 C 111.066406 109.191406 109.277344 109.375 107.511719 109.753906 C 106.125 110.050781 105.972656 110.3125 106.082031 111.695312 C 106.230469 113.550781 106.371094 115.402344 106.46875 117.257812 C 106.550781 118.800781 106.660156 118.976562 108.214844 119.074219 C 109.910156 119.179688 111.605469 119.292969 113.296875 119.300781 C 117.75 119.316406 122.199219 119.390625 126.65625 119.160156 C 131.898438 118.894531 137.148438 118.882812 142.382812 118.46875 C 146.871094 118.117188 151.367188 117.824219 155.847656 117.375 C 161.386719 116.816406 166.941406 116.546875 172.496094 116.273438 C 178.792969 115.960938 185.101562 115.800781 191.410156 115.632812 C 196.710938 115.492188 202.011719 115.398438 207.3125 115.339844 C 218.238281 115.226562 229.164062 115.179688 240.089844 115.433594 C 246.71875 115.585938 253.355469 115.460938 259.984375 115.460938 C 267.566406 115.5 275.148438 115.683594 282.734375 115.332031 Z M 171.964844 144.71875 C 169.851562 144.78125 167.734375 144.925781 165.617188 145.035156 C 160.539062 145.296875 155.460938 145.597656 150.382812 145.871094 C 147.578125 146.023438 144.769531 146.125 141.964844 146.292969 C 140.484375 146.378906 139.011719 146.546875 137.535156 146.6875 C 133.527344 147.058594 129.523438 147.515625 125.511719 147.78125 C 121.914062 148.019531 118.304688 148.046875 114.703125 148.164062 C 112.898438 148.222656 112.722656 148.410156 112.902344 150.269531 C 113.066406 151.960938 113.292969 153.644531 113.441406 155.335938 C 113.578125 156.871094 113.90625 157.289062 115.464844 157.320312 C 117.320312 157.355469 119.183594 157.339844 121.03125 157.214844 C 125.734375 156.886719 130.429688 156.40625 135.136719 156.140625 C 140.75 155.820312 146.371094 155.726562 151.996094 155.71875 C 158.78125 155.707031 165.570312 155.839844 172.359375 155.488281 C 178.074219 155.191406 183.800781 154.96875 189.523438 154.878906 C 200.714844 154.707031 211.90625 154.679688 223.097656 154.535156 C 228.082031 154.46875 233.0625 154.695312 238.046875 154.574219 C 246.371094 154.375 254.699219 154.589844 263.023438 154.21875 C 269.0625 153.949219 275.101562 153.792969 281.125 153.242188 C 286.398438 152.757812 291.679688 152.339844 296.957031 151.867188 C 298.433594 151.734375 299.898438 151.496094 301.375 151.351562 C 302.117188 151.277344 302.347656 150.910156 302.324219 150.195312 C 302.265625 148.441406 302.265625 146.6875 302.242188 144.933594 C 302.21875 143.371094 302.21875 143.363281 300.652344 143.355469 C 300.015625 143.351562 299.367188 143.3125 298.746094 143.410156 C 296.15625 143.800781 293.558594 143.636719 290.960938 143.648438 C 269.375 143.757812 247.785156 143.46875 226.203125 144.203125 C 218.628906 144.460938 211.039062 144.421875 203.457031 144.613281 C 197.992188 144.75 192.539062 144.253906 187.167969 144.347656 C 182.03125 144.25 177 144.574219 171.964844 144.71875 Z M 182.242188 198.917969 C 191.46875 198.824219 200.671875 198.402344 209.863281 197.601562 C 215.667969 197.09375 221.484375 196.71875 227.300781 196.332031 C 233.488281 195.917969 239.691406 195.847656 245.890625 195.714844 C 259.933594 195.410156 273.996094 196.03125 288.027344 194.996094 C 291.621094 194.730469 295.21875 194.5625 298.8125 194.285156 C 300.550781 194.148438 302.285156 193.902344 304.011719 193.632812 C 305.644531 193.375 305.722656 193.207031 305.734375 191.582031 C 305.746094 189.984375 305.605469 188.398438 305.480469 186.8125 C 305.371094 185.421875 305.191406 185.207031 303.773438 185.125 C 303.402344 185.101562 303.03125 185.121094 302.660156 185.117188 C 292.160156 185.019531 281.671875 185.203125 271.183594 185.703125 C 265.785156 185.957031 260.382812 186.101562 254.984375 186.359375 C 250.910156 186.554688 246.839844 186.785156 242.765625 187 C 237.527344 187.273438 232.285156 187.515625 227.042969 187.640625 C 220.101562 187.808594 213.15625 187.894531 206.210938 187.941406 C 200.855469 187.976562 195.507812 188.296875 190.15625 188.4375 C 184.492188 188.582031 178.855469 189.320312 173.183594 189.335938 C 170.835938 189.339844 168.550781 189.8125 166.285156 190.367188 C 165.164062 190.640625 165.035156 190.839844 165.082031 192.039062 C 165.15625 193.839844 165.28125 195.640625 165.359375 197.445312 C 165.429688 199.027344 165.496094 199.128906 167.136719 199.144531 C 169.257812 199.164062 171.378906 199.148438 173.5 199.148438 C 176.417969 199.105469 179.332031 198.945312 182.242188 198.917969 Z M 182.242188 198.917969 " fill-opacity="1" fill-rule="nonzero"/></g><g clip-path="url(#4bc45b65e1)"><path fill="#ffe073" d="M 248.097656 56.886719 C 259.714844 56.886719 271.335938 56.839844 282.953125 56.90625 C 288.03125 56.9375 293.105469 57.273438 298.167969 57.746094 C 301.914062 58.09375 305.640625 58.515625 309.347656 59.109375 C 316.800781 60.304688 323.804688 62.722656 330.261719 66.722656 C 335.304688 69.84375 338.605469 74.289062 340.800781 79.707031 C 342.765625 84.558594 343.839844 89.640625 344.921875 94.726562 C 345.882812 99.242188 346.578125 103.800781 347.078125 108.386719 C 347.394531 111.285156 347.570312 114.203125 347.816406 117.109375 C 348.359375 123.511719 348.460938 129.9375 348.828125 136.347656 C 349.230469 143.351562 349.441406 150.355469 349.425781 157.367188 C 349.421875 158.644531 349.644531 159.910156 349.621094 161.179688 C 349.476562 169.695312 348.769531 178.136719 346.054688 186.289062 C 343.460938 194.070312 339.859375 201.289062 334.515625 207.578125 C 331.074219 211.621094 327.476562 215.503906 323.632812 219.179688 C 317.5625 224.980469 311.953125 231.222656 307.214844 238.183594 C 302.101562 245.703125 298.140625 253.777344 296.066406 262.691406 C 295.125 266.722656 294.472656 270.800781 293.9375 274.90625 C 293.234375 280.265625 292.46875 285.621094 291.4375 290.929688 C 291.078125 292.777344 289.980469 293.625 288.492188 293.265625 C 287.707031 293.074219 287.253906 292.460938 286.816406 291.871094 C 285.460938 290.035156 284.132812 288.179688 282.792969 286.332031 C 279.390625 281.636719 275.742188 277.167969 271.578125 273.117188 C 265.121094 266.839844 257.507812 262.644531 248.910156 260.097656 C 240.570312 257.628906 232.0625 255.988281 223.488281 254.609375 C 217.585938 253.664062 211.683594 252.753906 205.746094 252.046875 C 201.441406 251.53125 197.171875 250.746094 192.863281 250.277344 C 188.761719 249.835938 184.65625 249.425781 180.53125 249.167969 C 177.421875 248.972656 174.304688 248.777344 171.207031 248.363281 C 169.796875 248.175781 168.359375 248.164062 166.9375 248.007812 C 165.042969 247.804688 163.136719 247.738281 161.234375 247.609375 C 161.023438 247.597656 160.8125 247.585938 160.601562 247.554688 C 159.976562 247.460938 159.613281 247.203125 159.972656 246.503906 C 160.117188 246.222656 160.234375 245.921875 160.351562 245.625 C 162.269531 240.703125 162.851562 235.671875 161.5625 230.492188 C 161.28125 229.355469 160.84375 228.265625 160.273438 227.246094 C 159.957031 226.679688 159.929688 226.195312 160.25 225.609375 C 162.824219 220.917969 162.90625 215.792969 162.429688 210.699219 C 162.039062 206.503906 160.449219 202.667969 157.417969 199.578125 C 157.160156 199.316406 156.992188 198.929688 156.695312 198.738281 C 154.992188 197.644531 155.292969 196.28125 155.859375 194.640625 C 158.589844 186.734375 154.464844 179.398438 149.457031 175.566406 C 145.671875 172.667969 141.285156 171.453125 136.597656 171.042969 C 134.640625 170.871094 132.679688 170.679688 130.730469 170.839844 C 125.535156 171.269531 120.339844 171.035156 115.148438 171.058594 C 113.554688 171.066406 111.996094 170.765625 110.449219 170.367188 C 108.382812 169.832031 107.382812 168.414062 107.113281 166.386719 C 106.890625 164.707031 106.683594 163.023438 106.507812 161.339844 C 106.078125 157.226562 105.605469 153.121094 105.28125 149 C 104.992188 145.339844 104.570312 141.710938 103.597656 138.171875 C 102.476562 134.082031 100.324219 130.527344 97.246094 127.671875 C 93.097656 123.824219 88.082031 123.070312 82.699219 124.320312 C 76.734375 125.699219 72.867188 129.539062 70.558594 135.046875 C 68.527344 139.898438 67.070312 144.957031 65.398438 149.9375 C 63.175781 156.5625 60.410156 162.914062 56.679688 168.832031 C 54.875 171.695312 52.675781 174.183594 49.960938 176.203125 C 49.664062 176.421875 49.351562 176.625 49.03125 176.808594 C 48.207031 177.277344 48.050781 177.207031 47.90625 176.304688 C 47.699219 174.996094 47.453125 173.691406 47.3125 172.375 C 46.867188 168.207031 46.480469 164.039062 46.226562 159.851562 C 46.03125 156.613281 46.136719 153.367188 45.90625 150.140625 C 45.691406 147.109375 45.621094 144.082031 45.757812 141.0625 C 45.96875 136.292969 46.097656 131.523438 46.527344 126.761719 C 47.144531 119.917969 48.371094 113.207031 50.167969 106.597656 C 51.378906 102.136719 52.816406 97.757812 55.113281 93.695312 C 57.964844 88.644531 61.933594 84.652344 66.589844 81.296875 C 71.480469 77.769531 76.84375 75.117188 82.394531 72.824219 C 91.722656 68.972656 101.324219 66.003906 111.160156 63.785156 C 115.859375 62.726562 120.609375 61.980469 125.378906 61.304688 C 129.988281 60.652344 134.628906 60.289062 139.253906 59.796875 C 141.097656 59.601562 142.949219 59.539062 144.800781 59.421875 C 149.660156 59.121094 154.519531 58.820312 159.378906 58.523438 C 159.484375 58.515625 159.589844 58.511719 159.695312 58.507812 C 164.039062 58.378906 168.386719 58.339844 172.726562 58.085938 C 176.539062 57.863281 180.359375 57.980469 184.164062 57.730469 C 187.34375 57.519531 190.527344 57.652344 193.695312 57.457031 C 198.304688 57.167969 202.921875 57.304688 207.527344 57.117188 C 218.660156 56.660156 229.800781 56.949219 240.933594 56.847656 C 243.320312 56.828125 245.710938 56.84375 248.097656 56.84375 C 248.097656 56.859375 248.097656 56.871094 248.097656 56.886719 Z M 259.984375 115.460938 C 267.566406 115.5 275.148438 115.683594 282.734375 115.332031 C 288.191406 115.078125 293.628906 114.640625 299.070312 114.230469 C 300.632812 114.113281 300.683594 114.015625 300.441406 112.519531 C 300.398438 112.257812 300.371094 111.992188 300.339844 111.726562 C 300.113281 109.726562 299.863281 107.722656 299.679688 105.714844 C 299.613281 104.988281 299.371094 104.625 298.613281 104.710938 C 298.347656 104.742188 298.082031 104.71875 297.816406 104.722656 C 291.9375 104.824219 286.058594 104.898438 280.179688 105.03125 C 271.375 105.230469 262.574219 104.773438 253.773438 104.761719 C 244.332031 104.75 234.890625 104.519531 225.457031 105.011719 C 219.953125 105.300781 214.441406 105.496094 208.9375 105.726562 C 207.980469 105.765625 207.023438 105.730469 206.074219 105.800781 C 200.152344 106.246094 194.222656 106.515625 188.289062 106.617188 C 178.640625 106.78125 168.984375 106.488281 159.335938 107.023438 C 153.996094 107.320312 148.652344 107.671875 143.304688 107.839844 C 140.171875 107.9375 137.082031 108.386719 133.96875 108.667969 C 129.433594 109.082031 124.90625 109.730469 120.339844 109.472656 C 117.851562 109.328125 115.367188 109.207031 112.875 109.199219 C 111.066406 109.191406 109.277344 109.375 107.511719 109.753906 C 106.125 110.050781 105.972656 110.3125 106.082031 111.695312 C 106.230469 113.550781 106.371094 115.402344 106.46875 117.257812 C 106.550781 118.800781 106.660156 118.976562 108.214844 119.074219 C 109.910156 119.179688 111.605469 119.292969 113.296875 119.300781 C 117.75 119.316406 122.199219 119.390625 126.65625 119.160156 C 131.898438 118.894531 137.148438 118.882812 142.382812 118.46875 C 146.871094 118.117188 151.367188 117.824219 155.847656 117.375 C 161.386719 116.816406 166.941406 116.546875 172.496094 116.273438 C 178.792969 115.960938 185.101562 115.800781 191.410156 115.632812 C 196.710938 115.492188 202.011719 115.398438 207.3125 115.339844 C 218.238281 115.226562 229.164062 115.179688 240.089844 115.433594 C 246.71875 115.585938 253.355469 115.460938 259.984375 115.460938 Z M 187.167969 144.347656 C 182.03125 144.25 177 144.574219 171.964844 144.71875 C 169.851562 144.78125 167.734375 144.925781 165.617188 145.035156 C 160.539062 145.296875 155.460938 145.597656 150.382812 145.871094 C 147.578125 146.023438 144.769531 146.125 141.964844 146.292969 C 140.484375 146.378906 139.011719 146.546875 137.535156 146.6875 C 133.527344 147.058594 129.523438 147.515625 125.511719 147.78125 C 121.914062 148.019531 118.304688 148.046875 114.703125 148.164062 C 112.898438 148.222656 112.722656 148.410156 112.902344 150.269531 C 113.066406 151.960938 113.292969 153.644531 113.441406 155.335938 C 113.578125 156.871094 113.90625 157.289062 115.464844 157.320312 C 117.320312 157.355469 119.183594 157.339844 121.03125 157.214844 C 125.734375 156.886719 130.429688 156.40625 135.136719 156.140625 C 140.75 155.820312 146.371094 155.726562 151.996094 155.71875 C 158.78125 155.707031 165.570312 155.839844 172.359375 155.488281 C 178.074219 155.191406 183.800781 154.96875 189.523438 154.878906 C 200.714844 154.707031 211.90625 154.679688 223.097656 154.535156 C 228.082031 154.46875 233.0625 154.695312 238.046875 154.574219 C 246.371094 154.375 254.699219 154.589844 263.023438 154.21875 C 269.0625 153.949219 275.101562 153.792969 281.125 153.242188 C 286.398438 152.757812 291.679688 152.339844 296.957031 151.867188 C 298.433594 151.734375 299.898438 151.496094 301.375 151.351562 C 302.117188 151.277344 302.347656 150.910156 302.324219 150.195312 C 302.265625 148.441406 302.265625 146.6875 302.242188 144.933594 C 302.21875 143.371094 302.21875 143.363281 300.652344 143.355469 C 300.015625 143.351562 299.367188 143.3125 298.746094 143.410156 C 296.15625 143.800781 293.558594 143.636719 290.960938 143.648438 C 269.375 143.757812 247.785156 143.46875 226.203125 144.203125 C 218.628906 144.460938 211.039062 144.421875 203.457031 144.613281 C 197.992188 144.75 192.539062 144.253906 187.167969 144.347656 Z M 173.5 199.148438 C 176.417969 199.105469 179.332031 198.945312 182.242188 198.917969 C 191.46875 198.824219 200.671875 198.402344 209.863281 197.601562 C 215.667969 197.09375 221.484375 196.71875 227.300781 196.332031 C 233.488281 195.917969 239.691406 195.847656 245.890625 195.714844 C 259.933594 195.410156 273.996094 196.03125 288.027344 194.996094 C 291.621094 194.730469 295.21875 194.5625 298.8125 194.285156 C 300.550781 194.148438 302.285156 193.902344 304.011719 193.632812 C 305.644531 193.375 305.722656 193.207031 305.734375 191.582031 C 305.746094 189.984375 305.605469 188.398438 305.480469 186.8125 C 305.371094 185.421875 305.191406 185.207031 303.773438 185.125 C 303.402344 185.101562 303.03125 185.121094 302.660156 185.117188 C 292.160156 185.019531 281.671875 185.203125 271.183594 185.703125 C 265.785156 185.957031 260.382812 186.101562 254.984375 186.359375 C 250.910156 186.554688 246.839844 186.785156 242.765625 187 C 237.527344 187.273438 232.285156 187.515625 227.042969 187.640625 C 220.101562 187.808594 213.15625 187.894531 206.210938 187.941406 C 200.855469 187.976562 195.507812 188.296875 190.15625 188.4375 C 184.492188 188.582031 178.855469 189.320312 173.183594 189.335938 C 170.835938 189.339844 168.550781 189.8125 166.285156 190.367188 C 165.164062 190.640625 165.035156 190.839844 165.082031 192.039062 C 165.15625 193.839844 165.28125 195.640625 165.359375 197.445312 C 165.429688 199.027344 165.496094 199.128906 167.136719 199.144531 C 169.257812 199.164062 171.378906 199.148438 173.5 199.148438 Z M 173.5 199.148438 " fill-opacity="1" fill-rule="nonzero"/></g><g clip-path="url(#a47c6b002c)"><path fill="#ff914d" d="M 148.195312 193.136719 C 148.226562 195.410156 147.6875 197.5625 146.695312 199.589844 C 146.34375 200.308594 146.429688 200.683594 147.109375 201.117188 C 150.976562 203.589844 152.753906 207.292969 153.292969 211.738281 C 153.617188 214.386719 153.753906 217.015625 153.308594 219.664062 C 152.921875 221.964844 152.15625 224.09375 150.644531 225.875 C 150.109375 226.503906 150.203125 226.921875 150.601562 227.53125 C 154.898438 234.089844 154.523438 240.734375 150.835938 247.378906 C 150.0625 248.765625 149.003906 249.980469 147.707031 250.949219 C 147.410156 251.167969 147.152344 251.445312 146.859375 251.671875 C 146.1875 252.1875 146.140625 252.730469 146.617188 253.445312 C 147.484375 254.738281 147.925781 256.195312 148.226562 257.730469 C 148.753906 260.394531 148.164062 262.894531 147.273438 265.363281 C 145.726562 269.636719 142.464844 271.925781 138.277344 273.1875 C 133.445312 274.644531 128.492188 275.5 123.535156 276.335938 C 120.039062 276.925781 116.535156 277.503906 113.011719 277.84375 C 109.480469 278.183594 105.925781 278.25 102.375 278.351562 C 97.230469 278.496094 92.09375 278.375 86.964844 278.167969 C 83.253906 278.015625 79.539062 278.132812 75.835938 277.925781 C 71.453125 277.675781 67.070312 277.351562 62.6875 277.074219 C 61.949219 277.027344 61.203125 277.039062 60.460938 277.042969 C 56.640625 277.070312 52.84375 276.726562 49.054688 276.34375 C 47.175781 276.152344 46.765625 275.597656 46.636719 273.675781 C 46.273438 268.269531 46.140625 262.855469 45.902344 257.449219 C 45.699219 252.835938 45.46875 248.226562 45.277344 243.613281 C 45.066406 238.628906 44.785156 233.648438 44.648438 228.660156 C 44.550781 225.109375 44.273438 221.5625 44.046875 218.015625 C 43.742188 213.25 43.484375 208.484375 43.070312 203.726562 C 42.71875 199.660156 42.4375 195.585938 42.167969 191.511719 C 42.136719 191.035156 42.136719 190.554688 42.15625 190.078125 C 42.234375 188.144531 42.679688 187.675781 44.550781 187.375 C 49.539062 186.5625 53.90625 184.445312 57.765625 181.175781 C 63.179688 176.585938 66.753906 170.792969 69.164062 164.1875 C 71.347656 158.199219 73.355469 152.160156 75.289062 146.085938 C 76.257812 143.042969 77.519531 140.117188 79.449219 137.53125 C 80.21875 136.503906 81.132812 135.609375 82.113281 134.796875 C 84.527344 132.796875 89.492188 132.652344 92.40625 136.558594 C 93.925781 138.59375 94.730469 140.953125 95.328125 143.394531 C 96.117188 146.601562 96.394531 149.871094 96.65625 153.15625 C 96.902344 156.21875 97.25 159.277344 97.644531 162.328125 C 98.078125 165.695312 98.367188 169.078125 98.507812 172.46875 C 98.59375 174.496094 99.328125 176.171875 100.886719 177.484375 C 101.589844 178.078125 102.359375 178.53125 103.253906 178.734375 C 104.804688 179.09375 106.367188 179.378906 107.964844 179.375 C 112.210938 179.363281 116.460938 179.480469 120.695312 179.289062 C 123.875 179.144531 127.058594 179.199219 130.226562 178.984375 C 131.921875 178.867188 133.609375 178.757812 135.304688 178.75 C 140.722656 178.722656 144.46875 181.253906 146.632812 186.195312 C 147.65625 188.539062 148.175781 190.886719 148.195312 193.136719 Z M 34.207031 277.003906 C 34.417969 276.996094 34.628906 276.992188 34.839844 276.984375 C 36.085938 276.921875 36.238281 276.824219 36.054688 275.566406 C 35.84375 274.136719 35.878906 272.703125 35.726562 271.28125 C 35.15625 266.054688 34.816406 260.8125 34.621094 255.570312 C 34.464844 251.269531 34.285156 246.972656 34.203125 242.667969 C 34.160156 240.335938 34.089844 238 33.984375 235.664062 C 33.769531 230.734375 33.605469 225.800781 33.296875 220.871094 C 33.015625 216.371094 32.871094 211.859375 32.535156 207.363281 C 32.410156 205.722656 32.355469 204.078125 32.207031 202.4375 C 31.855469 198.636719 31.304688 194.851562 31.300781 191.023438 C 31.300781 188.960938 31.277344 188.980469 29.167969 188.949219 C 26.042969 188.90625 22.917969 188.933594 19.789062 188.730469 C 16.945312 188.546875 14.066406 188.363281 11.265625 189.230469 C 10.039062 189.613281 9.992188 189.59375 9.980469 190.832031 C 9.933594 194.921875 9.949219 199.007812 9.757812 203.097656 C 9.617188 206.113281 9.660156 209.144531 9.9375 212.171875 C 10.199219 215.023438 10.058594 217.898438 10.242188 220.765625 C 10.492188 224.792969 10.324219 228.835938 10.59375 232.871094 C 10.816406 236.257812 10.847656 239.660156 11.039062 243.054688 C 11.277344 247.289062 11.722656 251.515625 11.84375 255.753906 C 11.988281 260.585938 12.167969 265.410156 12.59375 270.222656 C 12.75 271.964844 12.980469 273.699219 13.242188 275.429688 C 13.421875 276.628906 13.761719 276.855469 14.976562 277.070312 C 16.929688 277.421875 18.894531 277.148438 20.78125 277.269531 C 25.300781 277.179688 29.753906 277.089844 34.207031 277.003906 Z M 282.734375 115.332031 C 288.191406 115.078125 293.628906 114.640625 299.070312 114.230469 C 300.632812 114.113281 300.683594 114.015625 300.441406 112.519531 C 300.398438 112.257812 300.371094 111.992188 300.339844 111.726562 C 300.113281 109.726562 299.863281 107.722656 299.679688 105.714844 C 299.613281 104.988281 299.371094 104.625 298.613281 104.710938 C 298.347656 104.742188 298.082031 104.71875 297.816406 104.722656 C 291.9375 104.824219 286.058594 104.898438 280.179688 105.03125 C 271.375 105.230469 262.574219 104.773438 253.773438 104.761719 C 244.332031 104.75 234.890625 104.519531 225.457031 105.011719 C 219.953125 105.300781 214.441406 105.496094 208.9375 105.726562 C 207.980469 105.765625 207.023438 105.730469 206.074219 105.800781 C 200.152344 106.246094 194.222656 106.515625 188.289062 106.617188 C 178.640625 106.78125 168.984375 106.488281 159.335938 107.023438 C 153.996094 107.320312 148.652344 107.671875 143.304688 107.839844 C 140.171875 107.9375 137.082031 108.386719 133.96875 108.667969 C 129.433594 109.082031 124.90625 109.730469 120.339844 109.472656 C 117.851562 109.328125 115.367188 109.207031 112.875 109.199219 C 111.066406 109.191406 109.277344 109.375 107.511719 109.753906 C 106.125 110.050781 105.972656 110.3125 106.082031 111.695312 C 106.230469 113.550781 106.371094 115.402344 106.46875 117.257812 C 106.550781 118.800781 106.660156 118.976562 108.214844 119.074219 C 109.910156 119.179688 111.605469 119.292969 113.296875 119.300781 C 117.75 119.316406 122.199219 119.390625 126.65625 119.160156 C 131.898438 118.894531 137.148438 118.882812 142.382812 118.46875 C 146.871094 118.117188 151.367188 117.824219 155.847656 117.375 C 161.386719 116.816406 166.941406 116.546875 172.496094 116.273438 C 178.792969 115.960938 185.101562 115.800781 191.410156 115.632812 C 196.710938 115.492188 202.011719 115.398438 207.3125 115.339844 C 218.238281 115.226562 229.164062 115.179688 240.089844 115.433594 C 246.71875 115.585938 253.355469 115.460938 259.984375 115.460938 C 267.566406 115.5 275.148438 115.683594 282.734375 115.332031 Z M 171.964844 144.71875 C 169.851562 144.78125 167.734375 144.925781 165.617188 145.035156 C 160.539062 145.296875 155.460938 145.597656 150.382812 145.871094 C 147.578125 146.023438 144.769531 146.125 141.964844 146.292969 C 140.484375 146.378906 139.011719 146.546875 137.535156 146.6875 C 133.527344 147.058594 129.523438 147.515625 125.511719 147.78125 C 121.914062 148.019531 118.304688 148.046875 114.703125 148.164062 C 112.898438 148.222656 112.722656 148.410156 112.902344 150.269531 C 113.066406 151.960938 113.292969 153.644531 113.441406 155.335938 C 113.578125 156.871094 113.90625 157.289062 115.464844 157.320312 C 117.320312 157.355469 119.183594 157.339844 121.03125 157.214844 C 125.734375 156.886719 130.429688 156.40625 135.136719 156.140625 C 140.75 155.820312 146.371094 155.726562 151.996094 155.71875 C 158.78125 155.707031 165.570312 155.839844 172.359375 155.488281 C 178.074219 155.191406 183.800781 154.96875 189.523438 154.878906 C 200.714844 154.707031 211.90625 154.679688 223.097656 154.535156 C 228.082031 154.46875 233.0625 154.695312 238.046875 154.574219 C 246.371094 154.375 254.699219 154.589844 263.023438 154.21875 C 269.0625 153.949219 275.101562 153.792969 281.125 153.242188 C 286.398438 152.757812 291.679688 152.339844 296.957031 151.867188 C 298.433594 151.734375 299.898438 151.496094 301.375 151.351562 C 302.117188 151.277344 302.347656 150.910156 302.324219 150.195312 C 302.265625 148.441406 302.265625 146.6875 302.242188 144.933594 C 302.21875 143.371094 302.21875 143.363281 300.652344 143.355469 C 300.015625 143.351562 299.367188 143.3125 298.746094 143.410156 C 296.15625 143.800781 293.558594 143.636719 290.960938 143.648438 C 269.375 143.757812 247.785156 143.46875 226.203125 144.203125 C 218.628906 144.460938 211.039062 144.421875 203.457031 144.613281 C 197.992188 144.75 192.539062 144.253906 187.167969 144.347656 C 182.03125 144.25 177 144.574219 171.964844 144.71875 Z M 182.242188 198.917969 C 191.46875 198.824219 200.671875 198.402344 209.863281 197.601562 C 215.667969 197.09375 221.484375 196.71875 227.300781 196.332031 C 233.488281 195.917969 239.691406 195.847656 245.890625 195.714844 C 259.933594 195.410156 273.996094 196.03125 288.027344 194.996094 C 291.621094 194.730469 295.21875 194.5625 298.8125 194.285156 C 300.550781 194.148438 302.285156 193.902344 304.011719 193.632812 C 305.644531 193.375 305.722656 193.207031 305.734375 191.582031 C 305.746094 189.984375 305.605469 188.398438 305.480469 186.8125 C 305.371094 185.421875 305.191406 185.207031 303.773438 185.125 C 303.402344 185.101562 303.03125 185.121094 302.660156 185.117188 C 292.160156 185.019531 281.671875 185.203125 271.183594 185.703125 C 265.785156 185.957031 260.382812 186.101562 254.984375 186.359375 C 250.910156 186.554688 246.839844 186.785156 242.765625 187 C 237.527344 187.273438 232.285156 187.515625 227.042969 187.640625 C 220.101562 187.808594 213.15625 187.894531 206.210938 187.941406 C 200.855469 187.976562 195.507812 188.296875 190.15625 188.4375 C 184.492188 188.582031 178.855469 189.320312 173.183594 189.335938 C 170.835938 189.339844 168.550781 189.8125 166.285156 190.367188 C 165.164062 190.640625 165.035156 190.839844 165.082031 192.039062 C 165.15625 193.839844 165.28125 195.640625 165.359375 197.445312 C 165.429688 199.027344 165.496094 199.128906 167.136719 199.144531 C 169.257812 199.164062 171.378906 199.148438 173.5 199.148438 C 176.417969 199.105469 179.332031 198.945312 182.242188 198.917969 Z M 182.242188 198.917969 " fill-opacity="1" fill-rule="nonzero"/></g></svg>