<svg xmlns="http://www.w3.org/2000/svg" xmlns:xlink="http://www.w3.org/1999/xlink" width="500" zoomAndPan="magnify" viewBox="0 0 375 374.999991" height="500" preserveAspectRatio="xMidYMid meet" version="1.0"><defs><clipPath id="7ccce48a28"><path d="M 17.707031 20 L 357.457031 20 L 357.457031 357 L 17.707031 357 Z M 17.707031 20 " clip-rule="nonzero"/></clipPath></defs><g clip-path="url(#7ccce48a28)"><path fill="#ff914d" d="M 260.085938 123.390625 L 194.480469 26.71875 C 188.785156 18.34375 179.738281 18.511719 174.351562 27.066406 L 113.878906 123.039062 C 108.496094 131.59375 112.167969 138.597656 122.066406 138.597656 L 139.792969 138.597656 L 139.792969 171.96875 C 139.792969 182.417969 148.269531 190.894531 158.71875 190.894531 L 215.5 190.894531 C 225.957031 190.894531 234.429688 182.417969 234.429688 171.96875 L 234.429688 138.609375 L 252.390625 138.609375 C 262.300781 138.609375 265.773438 131.765625 260.085938 123.390625 Z M 51.3125 243.65625 L 30.371094 243.65625 C 21.144531 243.65625 17.300781 236.917969 17.300781 230.398438 C 17.300781 223.679688 22.109375 217.15625 30.371094 217.15625 L 101.054688 217.15625 C 109.328125 217.15625 114.125 223.679688 114.125 230.398438 C 114.125 236.925781 110.28125 243.65625 101.054688 243.65625 L 80.132812 243.65625 L 80.132812 340.082031 C 80.132812 349.699219 73.988281 355.074219 65.726562 355.074219 C 57.464844 355.074219 51.324219 349.699219 51.324219 340.082031 L 51.324219 243.65625 Z M 115.148438 285.535156 C 115.148438 245.578125 142.035156 214.828125 181.222656 214.828125 C 219.828125 214.828125 247.308594 246.542969 247.308594 285.535156 C 247.308594 325.289062 220.613281 356.238281 181.222656 356.238281 C 142.222656 356.238281 115.148438 325.289062 115.148438 285.535156 Z M 217.335938 285.535156 C 217.335938 262.289062 205.234375 241.335938 181.222656 241.335938 C 157.214844 241.335938 145.109375 262.289062 145.109375 285.535156 C 145.109375 308.964844 156.835938 329.710938 181.222656 329.710938 C 205.621094 329.710938 217.335938 308.964844 217.335938 285.535156 Z M 259.289062 232.121094 C 259.289062 223.089844 264.675781 217.148438 274.289062 217.148438 L 308.273438 217.148438 C 336.523438 217.148438 357.457031 235.574219 357.457031 263.058594 C 357.457031 291.097656 335.757812 308.585938 309.4375 308.585938 L 288.117188 308.585938 L 288.117188 340.09375 C 288.117188 349.707031 281.976562 355.082031 273.722656 355.082031 C 265.453125 355.082031 259.300781 349.707031 259.300781 340.09375 L 259.300781 232.121094 Z M 288.117188 283.222656 L 307.714844 283.222656 C 319.800781 283.222656 327.488281 274.386719 327.488281 262.867188 C 327.488281 251.332031 319.800781 242.5 307.714844 242.5 L 288.117188 242.5 Z M 288.117188 283.222656 " fill-opacity="1" fill-rule="nonzero"/></g></svg>