<svg xmlns="http://www.w3.org/2000/svg" xmlns:xlink="http://www.w3.org/1999/xlink" width="500" zoomAndPan="magnify" viewBox="0 0 375 149.999998" height="200" preserveAspectRatio="xMidYMid meet" version="1.0"><defs><g/><clipPath id="f0a21bf4d2"><path d="M 52 54.167969 L 111.40625 54.167969 L 111.40625 92 L 52 92 Z M 52 54.167969 " clip-rule="nonzero"/></clipPath><clipPath id="3907f0f5e1"><path d="M 60 92 L 74 92 L 74 105.917969 L 60 105.917969 Z M 60 92 " clip-rule="nonzero"/></clipPath><clipPath id="9a643729af"><path d="M 79 92 L 93 92 L 93 105.917969 L 79 105.917969 Z M 79 92 " clip-rule="nonzero"/></clipPath><clipPath id="1bca933b42"><path d="M 24.40625 76 L 59 76 L 59 81 L 24.40625 81 Z M 24.40625 76 " clip-rule="nonzero"/></clipPath></defs><g fill="#ffffff" fill-opacity="1"><g transform="translate(119.262432, 92.449109)"><g><path d="M 37.648438 -34.910156 C 37.492188 -35.492188 37.125 -35.808594 36.492188 -35.808594 L 31.066406 -35.808594 C 30.488281 -35.808594 30.066406 -35.492188 29.910156 -34.910156 L 23.195312 -13.425781 L 16.585938 -34.910156 C 16.429688 -35.492188 16.007812 -35.808594 15.429688 -35.808594 L 10.003906 -35.808594 C 9.371094 -35.808594 9.003906 -35.492188 8.847656 -34.910156 L 0.261719 1.054688 C 5.214844 1.054688 9.269531 -2.632812 10.847656 -10.375 L 13.375 -22.484375 L 20.800781 1.054688 C 24.378906 0.105469 26.800781 -2.160156 29.171875 -9.792969 L 33.121094 -22.457031 L 37.597656 -0.949219 C 37.703125 -0.316406 38.125 0 38.757812 0 L 44.757812 0 C 45.496094 0 45.863281 -0.472656 45.707031 -1.160156 Z M 37.648438 -34.910156 "/></g></g></g><g fill="#ffffff" fill-opacity="1"><g transform="translate(165.649259, 92.449109)"><g><path d="M 19.746094 0 C 20.429688 0 20.800781 -0.367188 20.800781 -1.054688 L 20.800781 -17.113281 L 34.542969 -36.859375 C 28.488281 -36.859375 23.167969 -34.175781 19.957031 -28.960938 L 16.851562 -23.960938 L 13.742188 -28.960938 C 10.53125 -34.175781 5.214844 -36.859375 -0.84375 -36.859375 L 12.902344 -17.113281 L 12.902344 -1.054688 C 12.902344 -0.367188 13.269531 0 13.953125 0 Z M 19.746094 0 "/></g></g></g><g fill="#ffffff" fill-opacity="1"><g transform="translate(199.346843, 92.449109)"><g/></g></g><g fill="#ffffff" fill-opacity="1"><g transform="translate(213.036482, 92.449109)"><g><path d="M 15.375 0.527344 C 21.640625 0.527344 29.171875 -2.160156 29.171875 -10.953125 C 29.171875 -18.640625 23.484375 -20.378906 18.273438 -21.535156 C 14.164062 -22.433594 10.425781 -22.851562 10.425781 -26.277344 C 10.425781 -28.699219 12.269531 -29.910156 15.058594 -29.910156 C 17.691406 -29.910156 19.746094 -28.855469 20.324219 -25.90625 C 20.429688 -25.222656 20.800781 -24.90625 21.429688 -24.90625 L 27.117188 -24.90625 C 27.804688 -24.90625 28.171875 -25.277344 28.117188 -26.011719 C 27.539062 -33.332031 21.222656 -36.332031 15.21875 -36.332031 C 8.953125 -36.332031 2.527344 -32.964844 2.527344 -25.171875 C 2.527344 -18.640625 7.054688 -16.746094 11.320312 -15.585938 C 16.21875 -14.269531 21.273438 -14.058594 21.273438 -9.792969 C 21.273438 -6.84375 18.796875 -5.898438 16.164062 -5.898438 C 12.742188 -5.898438 10.164062 -7.53125 9.6875 -10.792969 C 9.636719 -11.425781 9.269531 -11.796875 8.636719 -11.796875 L 2.476562 -11.796875 C 1.789062 -11.796875 1.421875 -11.425781 1.421875 -10.742188 C 1.84375 -2.738281 8.476562 0.527344 15.375 0.527344 Z M 15.375 0.527344 "/></g></g></g><g fill="#ffffff" fill-opacity="1"><g transform="translate(243.838185, 92.449109)"><g><path d="M 1.265625 -35.808594 C 0.578125 -35.808594 0.210938 -35.4375 0.210938 -34.753906 L 0.210938 -29.699219 C 0.210938 -29.015625 0.578125 -28.644531 1.265625 -28.644531 L 15.164062 -28.644531 C 12.007812 -27.304688 9.898438 -23.511719 9.898438 -18.695312 L 9.898438 -1.054688 C 9.898438 -0.367188 10.269531 0 10.953125 0 L 16.746094 0 C 17.429688 0 17.796875 -0.367188 17.796875 -1.054688 L 17.796875 -28.644531 L 26.433594 -28.644531 C 27.117188 -28.644531 27.488281 -29.015625 27.488281 -29.699219 L 27.488281 -34.753906 C 27.488281 -35.4375 27.117188 -35.808594 26.433594 -35.808594 Z M 1.265625 -35.808594 "/></g></g></g><g fill="#ffffff" fill-opacity="1"><g transform="translate(271.586043, 92.449109)"><g><path d="M 19.800781 0.527344 C 30.855469 0.527344 38.230469 -6.636719 38.230469 -17.957031 C 38.230469 -29.171875 31.066406 -36.332031 19.851562 -36.332031 C 8.792969 -36.332031 1.421875 -29.332031 1.421875 -18.007812 C 1.421875 -6.84375 8.582031 0.527344 19.800781 0.527344 Z M 19.800781 -6.636719 C 14.007812 -6.636719 9.320312 -10.847656 9.320312 -18.007812 C 9.320312 -25.117188 14.007812 -29.171875 19.800781 -29.171875 C 25.695312 -29.171875 30.332031 -25.066406 30.332031 -18.007812 C 30.332031 -10.847656 25.695312 -6.636719 19.800781 -6.636719 Z M 19.800781 -6.636719 "/></g></g></g><g fill="#ffffff" fill-opacity="1"><g transform="translate(311.233353, 92.449109)"><g><path d="M 26.066406 -6.53125 C 23.089844 -10.691406 19.613281 -12.953125 15.929688 -13.875 C 24.355469 -14.21875 27.644531 -18.296875 27.644531 -24.589844 C 27.644531 -31.488281 24.066406 -35.808594 14.742188 -35.808594 L 9.953125 -35.808594 L 9.953125 -35.78125 C 9.875 -35.808594 9.792969 -35.808594 9.6875 -35.808594 L 3.898438 -35.808594 C 3.210938 -35.808594 2.84375 -35.4375 2.84375 -34.753906 L 2.84375 1.054688 C 7.425781 0.527344 10.742188 -3.371094 10.742188 -9.953125 L 10.742188 -13.847656 L 11.109375 -13.847656 L 20.378906 -0.683594 C 20.746094 -0.210938 21.117188 0 21.640625 0 L 29.121094 0 C 29.699219 0 30.015625 -0.261719 30.015625 -0.683594 C 30.015625 -0.84375 29.960938 -1.054688 29.804688 -1.265625 Z M 19.746094 -24.328125 C 19.746094 -19.589844 15.585938 -19.535156 13.953125 -19.535156 L 10.742188 -19.535156 L 10.742188 -28.960938 L 13.953125 -28.960938 C 15.640625 -28.960938 19.746094 -29.015625 19.746094 -24.328125 Z M 19.746094 -24.328125 "/></g></g></g><g fill="#ffffff" fill-opacity="1"><g transform="translate(341.613845, 92.449109)"><g><path d="M 22.328125 -28.644531 C 23.011719 -28.644531 23.378906 -29.015625 23.378906 -29.699219 L 23.378906 -34.753906 C 23.378906 -35.4375 23.011719 -35.808594 22.328125 -35.808594 L 3.6875 -35.808594 C 3 -35.808594 2.632812 -35.4375 2.632812 -34.753906 L 2.632812 -29.699219 C 2.632812 -29.015625 3 -28.644531 3.6875 -28.644531 L 8.398438 -28.644531 C 4.949219 -27.304688 2.632812 -23.667969 2.632812 -18.167969 L 2.632812 -1.054688 C 2.632812 -0.367188 3 0 3.6875 0 L 22.328125 0 C 23.011719 0 23.378906 -0.367188 23.378906 -1.054688 L 23.378906 -6.109375 C 23.378906 -6.792969 23.011719 -7.160156 22.328125 -7.160156 L 10.53125 -7.160156 L 10.53125 -19.984375 C 11.796875 -16.957031 15.058594 -14.902344 20.011719 -14.902344 L 21.800781 -14.902344 C 22.484375 -14.902344 22.851562 -15.269531 22.851562 -15.957031 L 22.851562 -21.011719 C 22.851562 -21.695312 22.484375 -22.0625 21.800781 -22.0625 L 10.53125 -22.0625 L 10.53125 -28.644531 Z M 22.328125 -28.644531 "/></g></g></g><g clip-path="url(#f0a21bf4d2)"><path fill="#ffffff" d="M 111.40625 64.289062 L 105.390625 89.105469 C 105.390625 89.34375 105.34375 89.570312 105.25 89.792969 C 105.15625 90.011719 105.027344 90.207031 104.855469 90.375 C 104.6875 90.542969 104.492188 90.671875 104.269531 90.765625 C 104.050781 90.855469 103.816406 90.902344 103.578125 90.902344 L 63.046875 91.195312 C 62.804688 91.195312 62.574219 91.148438 62.355469 91.058594 C 62.132812 90.964844 61.9375 90.835938 61.765625 90.667969 C 61.597656 90.496094 61.464844 90.304688 61.375 90.082031 C 61.28125 89.863281 61.234375 89.632812 61.234375 89.394531 L 61.234375 64.285156 C 61.234375 64.234375 61.234375 64.1875 61.242188 64.136719 L 60.691406 59.277344 L 54.703125 59.277344 C 54.371094 59.265625 54.054688 59.191406 53.75 59.054688 C 53.449219 58.921875 53.183594 58.734375 52.953125 58.496094 C 52.722656 58.257812 52.546875 57.988281 52.421875 57.683594 C 52.296875 57.375 52.234375 57.058594 52.234375 56.730469 C 52.234375 56.398438 52.296875 56.082031 52.421875 55.777344 C 52.546875 55.472656 52.722656 55.199219 52.953125 54.960938 C 53.183594 54.722656 53.449219 54.539062 53.75 54.402344 C 54.054688 54.269531 54.371094 54.195312 54.703125 54.179688 L 65.277344 54.179688 C 65.277344 54.191406 65.277344 54.199219 65.277344 54.207031 L 65.851562 59.28125 L 66.210938 62.488281 L 109.59375 62.488281 C 109.832031 62.488281 110.0625 62.535156 110.285156 62.625 C 110.507812 62.71875 110.703125 62.847656 110.871094 63.015625 C 111.042969 63.183594 111.171875 63.378906 111.265625 63.597656 C 111.359375 63.820312 111.40625 64.046875 111.40625 64.289062 Z M 111.40625 64.289062 " fill-opacity="1" fill-rule="nonzero"/></g><g clip-path="url(#3907f0f5e1)"><path fill="#ffffff" d="M 73.847656 99.355469 C 73.847656 99.785156 73.804688 100.214844 73.71875 100.636719 C 73.636719 101.058594 73.511719 101.46875 73.34375 101.867188 C 73.179688 102.261719 72.976562 102.640625 72.734375 103 C 72.492188 103.355469 72.21875 103.6875 71.914062 103.992188 C 71.605469 104.296875 71.273438 104.570312 70.914062 104.808594 C 70.550781 105.046875 70.171875 105.25 69.769531 105.414062 C 69.371094 105.578125 68.957031 105.703125 68.53125 105.789062 C 68.109375 105.871094 67.679688 105.914062 67.246094 105.914062 C 66.8125 105.914062 66.382812 105.871094 65.957031 105.789062 C 65.53125 105.703125 65.117188 105.578125 64.71875 105.414062 C 64.316406 105.25 63.9375 105.046875 63.578125 104.808594 C 63.214844 104.570312 62.882812 104.296875 62.578125 103.992188 C 62.269531 103.6875 61.996094 103.355469 61.753906 103 C 61.515625 102.640625 61.3125 102.261719 61.144531 101.867188 C 60.980469 101.46875 60.855469 101.058594 60.769531 100.636719 C 60.683594 100.214844 60.644531 99.785156 60.644531 99.355469 C 60.644531 98.925781 60.683594 98.5 60.769531 98.078125 C 60.855469 97.65625 60.980469 97.246094 61.144531 96.847656 C 61.3125 96.449219 61.515625 96.070312 61.753906 95.714844 C 61.996094 95.355469 62.269531 95.023438 62.578125 94.71875 C 62.882812 94.414062 63.214844 94.144531 63.578125 93.902344 C 63.9375 93.664062 64.316406 93.460938 64.71875 93.296875 C 65.117188 93.132812 65.53125 93.007812 65.957031 92.925781 C 66.382812 92.839844 66.8125 92.796875 67.246094 92.796875 C 67.679688 92.796875 68.109375 92.839844 68.53125 92.925781 C 68.957031 93.007812 69.371094 93.132812 69.769531 93.296875 C 70.171875 93.460938 70.550781 93.664062 70.914062 93.902344 C 71.273438 94.144531 71.605469 94.414062 71.914062 94.71875 C 72.21875 95.023438 72.492188 95.355469 72.734375 95.714844 C 72.976562 96.070312 73.179688 96.449219 73.34375 96.847656 C 73.511719 97.246094 73.636719 97.65625 73.71875 98.078125 C 73.804688 98.5 73.847656 98.925781 73.847656 99.355469 Z M 73.847656 99.355469 " fill-opacity="1" fill-rule="nonzero"/></g><g clip-path="url(#9a643729af)"><path fill="#ffffff" d="M 92.480469 99.355469 C 92.480469 99.785156 92.4375 100.214844 92.351562 100.636719 C 92.265625 101.058594 92.140625 101.46875 91.976562 101.867188 C 91.808594 102.261719 91.605469 102.640625 91.367188 103 C 91.125 103.355469 90.851562 103.6875 90.546875 103.992188 C 90.238281 104.296875 89.90625 104.570312 89.542969 104.808594 C 89.183594 105.046875 88.804688 105.25 88.402344 105.414062 C 88.003906 105.578125 87.589844 105.703125 87.164062 105.789062 C 86.738281 105.871094 86.3125 105.914062 85.878906 105.914062 C 85.445312 105.914062 85.015625 105.871094 84.589844 105.789062 C 84.164062 105.703125 83.75 105.578125 83.351562 105.414062 C 82.949219 105.25 82.570312 105.046875 82.210938 104.808594 C 81.847656 104.570312 81.515625 104.296875 81.210938 103.992188 C 80.902344 103.6875 80.628906 103.355469 80.386719 103 C 80.148438 102.640625 79.945312 102.261719 79.777344 101.867188 C 79.613281 101.46875 79.488281 101.058594 79.402344 100.636719 C 79.316406 100.214844 79.273438 99.785156 79.273438 99.355469 C 79.273438 98.925781 79.316406 98.5 79.402344 98.078125 C 79.488281 97.65625 79.613281 97.246094 79.777344 96.847656 C 79.945312 96.449219 80.148438 96.070312 80.386719 95.714844 C 80.628906 95.355469 80.902344 95.023438 81.210938 94.71875 C 81.515625 94.414062 81.847656 94.144531 82.210938 93.902344 C 82.570312 93.664062 82.949219 93.460938 83.351562 93.296875 C 83.75 93.132812 84.164062 93.007812 84.589844 92.925781 C 85.015625 92.839844 85.445312 92.796875 85.878906 92.796875 C 86.3125 92.796875 86.738281 92.839844 87.164062 92.925781 C 87.589844 93.007812 88.003906 93.132812 88.402344 93.296875 C 88.804688 93.460938 89.183594 93.664062 89.542969 93.902344 C 89.90625 94.144531 90.238281 94.414062 90.546875 94.71875 C 90.851562 95.023438 91.125 95.355469 91.367188 95.714844 C 91.605469 96.070312 91.808594 96.449219 91.976562 96.847656 C 92.140625 97.246094 92.265625 97.65625 92.351562 98.078125 C 92.4375 98.5 92.480469 98.925781 92.480469 99.355469 Z M 92.480469 99.355469 " fill-opacity="1" fill-rule="nonzero"/></g><path fill="#ffffff" d="M 41.71875 64.671875 L 56.828125 64.671875 C 57.0625 64.671875 57.285156 64.71875 57.503906 64.804688 C 57.71875 64.894531 57.90625 65.019531 58.074219 65.183594 C 58.238281 65.347656 58.367188 65.539062 58.453125 65.75 C 58.542969 65.964844 58.589844 66.1875 58.589844 66.421875 L 58.589844 66.859375 C 58.589844 67.089844 58.542969 67.3125 58.453125 67.527344 C 58.367188 67.742188 58.238281 67.929688 58.074219 68.09375 C 57.90625 68.257812 57.71875 68.386719 57.503906 68.472656 C 57.285156 68.5625 57.0625 68.605469 56.828125 68.605469 L 41.71875 68.605469 C 41.484375 68.605469 41.257812 68.5625 41.042969 68.472656 C 40.828125 68.386719 40.636719 68.257812 40.472656 68.09375 C 40.308594 67.929688 40.179688 67.742188 40.089844 67.527344 C 40 67.3125 39.957031 67.089844 39.957031 66.859375 L 39.957031 66.421875 C 39.957031 66.1875 40 65.964844 40.089844 65.75 C 40.179688 65.539062 40.308594 65.347656 40.472656 65.183594 C 40.636719 65.019531 40.828125 64.894531 41.042969 64.804688 C 41.257812 64.71875 41.484375 64.671875 41.71875 64.671875 Z M 41.71875 64.671875 " fill-opacity="1" fill-rule="nonzero"/><path fill="#ffffff" d="M 41.71875 89.15625 L 56.828125 89.15625 C 57.0625 89.15625 57.285156 89.199219 57.503906 89.289062 C 57.71875 89.375 57.90625 89.503906 58.074219 89.667969 C 58.238281 89.832031 58.367188 90.019531 58.453125 90.234375 C 58.542969 90.449219 58.589844 90.671875 58.589844 90.902344 L 58.589844 91.339844 C 58.589844 91.574219 58.542969 91.796875 58.453125 92.011719 C 58.367188 92.222656 58.238281 92.414062 58.074219 92.578125 C 57.90625 92.742188 57.71875 92.867188 57.503906 92.957031 C 57.285156 93.046875 57.0625 93.089844 56.828125 93.089844 L 41.71875 93.089844 C 41.484375 93.089844 41.257812 93.046875 41.042969 92.957031 C 40.828125 92.867188 40.636719 92.742188 40.472656 92.578125 C 40.308594 92.414062 40.179688 92.222656 40.089844 92.011719 C 40 91.796875 39.957031 91.574219 39.957031 91.339844 L 39.957031 90.902344 C 39.957031 90.671875 40 90.449219 40.089844 90.234375 C 40.179688 90.019531 40.308594 89.832031 40.472656 89.667969 C 40.636719 89.503906 40.828125 89.375 41.042969 89.289062 C 41.257812 89.199219 41.484375 89.15625 41.71875 89.15625 Z M 41.71875 89.15625 " fill-opacity="1" fill-rule="nonzero"/><g clip-path="url(#1bca933b42)"><path fill="#ffffff" d="M 26.386719 76.621094 L 56.609375 76.621094 C 56.871094 76.621094 57.125 76.671875 57.367188 76.773438 C 57.609375 76.871094 57.824219 77.015625 58.007812 77.199219 C 58.195312 77.382812 58.335938 77.597656 58.4375 77.835938 C 58.539062 78.078125 58.589844 78.328125 58.589844 78.589844 C 58.589844 78.851562 58.539062 79.101562 58.4375 79.34375 C 58.335938 79.582031 58.195312 79.796875 58.007812 79.980469 C 57.824219 80.164062 57.609375 80.308594 57.367188 80.40625 C 57.125 80.507812 56.871094 80.558594 56.609375 80.558594 L 26.386719 80.558594 C 26.121094 80.558594 25.871094 80.507812 25.628906 80.40625 C 25.386719 80.308594 25.171875 80.164062 24.984375 79.980469 C 24.800781 79.796875 24.65625 79.582031 24.554688 79.34375 C 24.457031 79.101562 24.40625 78.851562 24.40625 78.589844 C 24.40625 78.328125 24.457031 78.078125 24.554688 77.835938 C 24.65625 77.597656 24.800781 77.382812 24.984375 77.199219 C 25.171875 77.015625 25.386719 76.871094 25.628906 76.773438 C 25.871094 76.671875 26.121094 76.621094 26.386719 76.621094 Z M 26.386719 76.621094 " fill-opacity="1" fill-rule="nonzero"/></g></svg>