<svg xmlns="http://www.w3.org/2000/svg" xmlns:xlink="http://www.w3.org/1999/xlink" width="800" zoomAndPan="magnify" viewBox="0 0 600 149.999998" height="200" preserveAspectRatio="xMidYMid meet" version="1.0"><defs><g/></defs><g fill="#ff914d" fill-opacity="1"><g transform="translate(99.838475, 102.909224)"><g><path d="M 76.878906 -58.03125 C 76.628906 -58.03125 76.132812 -58.03125 75.800781 -57.945312 C 72.992188 -57.945312 70.179688 -57.863281 67.371094 -57.699219 C 66.046875 -57.617188 64.644531 -57.535156 63.320312 -57.535156 C 61.003906 -57.535156 58.773438 -57.699219 56.460938 -57.699219 C 55.550781 -57.78125 55.21875 -57.453125 54.886719 -56.789062 C 54.226562 -55.382812 53.648438 -53.898438 52.90625 -52.492188 C 51.335938 -49.515625 49.761719 -46.539062 48.191406 -43.644531 C 47.285156 -41.828125 46.125 -40.007812 45.21875 -38.191406 C 44.390625 -36.371094 43.316406 -34.71875 42.738281 -32.816406 C 42.488281 -32.074219 41.992188 -31.414062 41.578125 -30.667969 C 39.347656 -33.480469 37.613281 -36.539062 35.875 -39.761719 C 34.304688 -42.488281 32.402344 -44.96875 31 -47.78125 C 29.34375 -51.085938 27.277344 -54.226562 25.957031 -57.699219 C 25.792969 -58.03125 25.460938 -58.03125 24.964844 -58.03125 C 24.386719 -58.03125 23.722656 -57.945312 23.144531 -57.945312 C 20.253906 -57.863281 17.277344 -57.945312 14.382812 -57.945312 C 11.324219 -57.863281 8.515625 -57.699219 5.375 -57.945312 C 5.125 -57.285156 4.878906 -56.707031 5.042969 -55.964844 C 5.125 -55.136719 4.960938 -54.226562 5.042969 -53.234375 C 5.125 -51.746094 5.207031 -50.257812 5.207031 -48.6875 C 5.125 -46.539062 5.457031 -44.472656 5.289062 -42.324219 C 5.125 -40.257812 5.375 -38.191406 5.375 -36.042969 L 5.375 -28.105469 C 5.375 -25.625 5.375 -23.226562 5.457031 -20.832031 L 5.375 -11.324219 C 5.457031 -9.507812 5.375 -7.6875 5.289062 -5.953125 C 5.207031 -4.296875 5.375 -2.5625 5.207031 -0.992188 C 5.207031 -0.496094 5.539062 -0.0820312 6.117188 -0.246094 C 8.101562 -0.660156 11.242188 -0.332031 13.226562 -0.414062 C 14.136719 -0.496094 13.722656 -2.230469 13.722656 -2.5625 C 13.640625 -4.546875 13.804688 -6.363281 13.722656 -8.265625 C 13.558594 -11.574219 13.558594 -14.960938 13.640625 -18.351562 C 13.722656 -20.417969 13.722656 -22.648438 13.640625 -24.800781 C 13.640625 -26.453125 13.558594 -28.105469 13.472656 -29.757812 C 13.472656 -30.503906 13.722656 -31.328125 13.558594 -31.992188 C 13.308594 -33.480469 13.472656 -34.882812 13.308594 -36.539062 C 14.136719 -35.460938 14.546875 -34.554688 15.128906 -33.644531 C 15.953125 -32.320312 16.863281 -30.917969 17.773438 -29.675781 C 19.09375 -27.941406 20.085938 -26.121094 21.160156 -24.304688 C 22.816406 -21.65625 24.46875 -18.847656 26.203125 -16.203125 C 27.113281 -14.714844 28.105469 -13.308594 29.015625 -11.820312 C 29.261719 -11.492188 29.511719 -11.242188 29.839844 -11.242188 C 30.585938 -11.242188 31.328125 -11.242188 32.074219 -11.324219 C 35.132812 -11.492188 38.273438 -11.984375 41.25 -11.324219 C 42.160156 -11.160156 42.65625 -11.492188 42.984375 -12.316406 C 43.894531 -14.632812 44.886719 -16.863281 46.042969 -19.011719 C 48.441406 -23.722656 50.753906 -28.355469 53.234375 -32.984375 C 53.8125 -33.976562 54.476562 -34.882812 55.21875 -35.875 C 55.632812 -31.90625 55.054688 -28.105469 55.136719 -24.21875 C 55.21875 -21.742188 55.300781 -19.09375 55.136719 -16.53125 C 54.886719 -13.226562 54.886719 -10.003906 54.886719 -6.695312 C 54.804688 -4.628906 54.640625 -1.15625 54.972656 -0.332031 C 55.550781 -0.164062 55.714844 0.0820312 56.210938 0 C 58.113281 -0.332031 60.015625 -0.0820312 61.914062 0 C 66.046875 0.164062 70.179688 -0.496094 74.230469 -0.414062 L 77.207031 -0.414062 C 77.785156 -0.910156 77.871094 -1.488281 77.785156 -2.148438 C 77.785156 -3.390625 77.703125 -4.792969 77.703125 -6.035156 C 77.703125 -7.273438 77.785156 -8.597656 77.621094 -9.835938 C 77.457031 -11.574219 77.539062 -13.226562 77.457031 -14.960938 C 77.375 -16.78125 77.375 -18.515625 77.457031 -20.335938 C 77.457031 -21.742188 77.207031 -23.0625 77.289062 -24.386719 C 77.457031 -27.527344 77.539062 -30.667969 77.539062 -33.890625 C 77.539062 -35.628906 77.375 -37.53125 77.539062 -39.265625 C 77.621094 -40.917969 77.457031 -42.488281 77.457031 -44.140625 C 77.539062 -46.207031 77.289062 -48.277344 77.125 -50.34375 L 77.125 -56.625 C 77.125 -57.203125 77.539062 -57.617188 76.878906 -58.03125 Z M 13.144531 -54.308594 C 13.886719 -54.226562 14.632812 -54.558594 15.375 -54.226562 C 22.566406 -43.5625 28.765625 -32.238281 36.453125 -21.90625 C 35.132812 -19.839844 34.304688 -17.691406 32.984375 -15.789062 C 32.570312 -15.707031 32.238281 -15.953125 31.90625 -15.707031 C 30.253906 -18.269531 28.1875 -20.335938 26.617188 -22.898438 C 24.136719 -26.78125 21.65625 -30.585938 19.261719 -34.554688 C 17.523438 -37.445312 15.953125 -40.339844 13.96875 -42.984375 C 13.0625 -44.140625 13.144531 -45.300781 13.144531 -46.457031 C 13.144531 -48.441406 13.308594 -50.34375 13.226562 -52.324219 C 13.226562 -52.988281 13.144531 -53.566406 13.144531 -54.308594 Z M 67.039062 -54.0625 L 67.039062 -50.507812 C 66.957031 -48.359375 66.957031 -46.292969 66.875 -44.140625 C 66.710938 -40.339844 66.792969 -36.453125 66.792969 -32.570312 C 66.792969 -31.164062 66.710938 -29.675781 66.792969 -28.269531 C 66.957031 -26.203125 66.957031 -24.054688 67.121094 -21.988281 C 67.207031 -20.335938 67.289062 -18.683594 67.289062 -17.113281 C 67.289062 -14.464844 67.121094 -11.820312 67.207031 -9.175781 C 67.289062 -7.605469 66.957031 -6.035156 67.289062 -4.296875 C 64.394531 -4.382812 61.667969 -3.71875 58.773438 -3.886719 L 58.773438 -43.316406 C 60.425781 -46.703125 61.585938 -50.589844 64.0625 -53.8125 C 64.972656 -53.898438 65.964844 -53.8125 67.039062 -54.0625 Z M 67.039062 -54.0625 "/></g></g></g><g fill="#ff914d" fill-opacity="1"><g transform="translate(182.737569, 102.909224)"><g><path d="M 21.492188 -43.398438 C 14.878906 -42.984375 2.148438 -43.398438 1.570312 -43.066406 C 8.101562 -26.78125 16.035156 -11.492188 23.476562 3.800781 C 21.988281 7.355469 17.855469 9.753906 13.804688 9.011719 C 12.070312 8.679688 10.5 8.019531 9.011719 7.027344 C 8.515625 6.695312 8.019531 6.363281 7.191406 6.613281 C 5.621094 9.011719 3.472656 11.078125 2.726562 14.054688 C 4.960938 16.945312 9.257812 18.433594 12.730469 18.765625 C 15.789062 19.09375 17.195312 19.011719 20.171875 18.597656 C 23.476562 18.101562 26.121094 16.617188 28.105469 13.96875 C 30.335938 11.078125 32.074219 7.9375 33.480469 4.546875 C 36.125 -1.902344 39.015625 -8.265625 41.496094 -14.878906 C 44.886719 -23.808594 48.191406 -32.816406 52.160156 -41.578125 C 52.324219 -41.992188 52.738281 -42.324219 52.492188 -42.984375 C 52.324219 -43.066406 52.160156 -43.316406 51.914062 -43.234375 C 48.605469 -42.820312 45.628906 -43.398438 42.160156 -42.984375 C 39.925781 -33.976562 36.207031 -25.378906 33.148438 -16.367188 C 30.667969 -20.914062 29.261719 -25.542969 27.195312 -29.839844 C 25.128906 -34.222656 23.144531 -38.6875 21.492188 -43.398438 Z M 13.226562 -39.597656 C 18.683594 -28.765625 23.144531 -17.441406 29.015625 -6.777344 C 28.933594 -5.953125 28.355469 -5.289062 28.105469 -4.546875 C 27.03125 -3.140625 26.949219 -0.164062 25.542969 0 C 22.816406 -3.96875 8.597656 -34.472656 7.273438 -39.101562 C 9.257812 -39.679688 11.160156 -39.429688 13.226562 -39.597656 Z M 13.226562 -39.597656 "/></g></g></g><g fill="#ff914d" fill-opacity="1"><g transform="translate(236.708762, 102.909224)"><g><path d="M 24.136719 -58.9375 C 20.582031 -58.691406 17.359375 -57.617188 14.21875 -56.210938 C 12.730469 -55.550781 11.324219 -54.804688 10.167969 -53.648438 C 7.109375 -50.589844 5.375 -46.953125 5.125 -42.570312 C 4.878906 -37.941406 6.199219 -33.644531 9.671875 -30.667969 C 12.398438 -28.269531 14.632812 -25.210938 18.269531 -23.808594 C 19.589844 -23.226562 20.75 -22.238281 21.988281 -21.492188 C 24.136719 -20.335938 26.285156 -19.011719 28.355469 -17.691406 C 30.335938 -16.367188 32.320312 -14.960938 34.222656 -13.390625 C 35.710938 -12.070312 35.546875 -8.597656 33.230469 -8.019531 C 29.757812 -7.027344 26.371094 -7.027344 23.0625 -8.183594 C 21.246094 -8.347656 19.09375 -9.753906 17.195312 -10.746094 C 14.960938 -11.820312 12.648438 -13.722656 11.078125 -15.707031 C 10.664062 -16.203125 10.003906 -16.617188 9.589844 -16.945312 C 8.347656 -17.027344 7.851562 -16.367188 7.355469 -15.789062 C 6.53125 -14.796875 5.785156 -13.804688 5.125 -12.8125 C 4.628906 -12.152344 3.140625 -10.414062 3.390625 -9.835938 C 3.96875 -8.515625 6.035156 -7.109375 7.109375 -6.199219 C 10.746094 -2.976562 14.960938 -0.992188 19.589844 0.164062 C 25.128906 1.488281 30.75 1.488281 36.371094 0.742188 C 41.25 0.164062 45.796875 -1.324219 49.679688 -4.382812 C 51.085938 -5.457031 52.410156 -6.695312 53.070312 -8.265625 C 53.980469 -10.746094 54.722656 -13.226562 54.722656 -16.035156 C 54.558594 -20.832031 52.820312 -24.800781 49.351562 -28.023438 C 47.117188 -30.253906 44.308594 -31.742188 41.828125 -33.726562 C 39.84375 -35.214844 37.695312 -36.371094 35.628906 -37.777344 C 33.394531 -39.265625 31.082031 -40.671875 28.851562 -42.242188 C 28.023438 -42.820312 27.277344 -43.644531 26.78125 -44.554688 C 25.542969 -46.703125 26.285156 -48.6875 28.519531 -49.433594 C 29.261719 -49.679688 29.925781 -49.847656 30.667969 -49.847656 C 32.984375 -50.011719 35.132812 -49.761719 37.28125 -49.019531 C 40.007812 -48.109375 42.242188 -46.539062 43.398438 -43.8125 C 43.644531 -43.316406 43.8125 -42.738281 44.554688 -42.324219 C 47.285156 -42.40625 50.257812 -41.828125 53.152344 -42.324219 C 53.316406 -43.5625 53.152344 -44.390625 52.820312 -45.300781 C 52.324219 -46.375 51.582031 -47.285156 51.003906 -48.277344 C 48.359375 -52.574219 44.886719 -55.714844 40.007812 -57.285156 C 34.882812 -58.9375 29.59375 -59.351562 24.136719 -58.9375 Z M 21.160156 -54.144531 C 18.597656 -52.324219 17.605469 -49.847656 17.027344 -47.117188 C 16.53125 -44.390625 16.863281 -41.828125 18.683594 -39.597656 C 20.085938 -37.941406 21.574219 -36.371094 23.3125 -35.050781 C 25.957031 -32.898438 29.015625 -31.082031 31.660156 -29.015625 C 35.050781 -26.371094 38.851562 -24.304688 41.746094 -21.160156 C 44.554688 -18.1875 46.042969 -14.796875 45.21875 -10.664062 C 44.722656 -8.347656 43.398438 -6.363281 41.082031 -5.289062 C 39.511719 -4.628906 37.859375 -3.71875 36.042969 -3.71875 C 35.792969 -3.71875 35.546875 -3.71875 35.296875 -4.050781 C 36.453125 -5.125 37.53125 -6.199219 38.191406 -7.6875 C 39.597656 -10.828125 39.101562 -13.722656 36.785156 -16.203125 C 34.554688 -18.515625 31.90625 -20.085938 29.261719 -21.65625 C 26.371094 -23.394531 23.558594 -25.210938 20.75 -26.949219 C 18.351562 -28.355469 16.203125 -30.089844 13.886719 -31.660156 C 12.976562 -32.238281 12.566406 -33.148438 11.902344 -33.890625 C 7.9375 -38.109375 8.761719 -43.976562 10.828125 -47.863281 C 12.730469 -51.25 14.960938 -53.234375 21.160156 -54.144531 Z M 21.160156 -54.144531 "/></g></g></g><g fill="#ff914d" fill-opacity="1"><g transform="translate(294.399265, 102.909224)"><g><path d="M 22.402344 -54.722656 C 20.417969 -51.167969 18.019531 -48.523438 14.960938 -46.292969 C 11.738281 -43.976562 7.851562 -43.894531 4.132812 -42.65625 C 4.464844 -40.175781 3.886719 -37.695312 4.628906 -35.214844 C 6.449219 -34.882812 8.183594 -35.296875 9.835938 -34.964844 C 10.25 -34.472656 10.167969 -33.726562 10.167969 -33.230469 C 10.167969 -28.601562 10.085938 -23.890625 10.085938 -19.179688 C 10.085938 -17.523438 10.003906 -15.871094 10.003906 -14.21875 C 10.003906 -12.152344 10.5 -9.917969 11.078125 -7.851562 C 11.324219 -6.777344 11.820312 -5.621094 12.566406 -4.710938 C 15.539062 -1.652344 19.09375 0 23.3125 0.578125 C 28.023438 1.238281 32.652344 0.828125 37.117188 -0.828125 C 38.191406 -1.15625 39.429688 -1.324219 40.339844 -2.480469 C 40.007812 -4.628906 40.503906 -6.945312 39.511719 -9.175781 C 38.4375 -8.925781 37.613281 -8.679688 36.785156 -8.515625 C 35.050781 -8.265625 33.394531 -8.347656 32.15625 -9.753906 C 31.328125 -10.664062 30.667969 -11.65625 30.253906 -12.894531 C 29.757812 -14.714844 29.839844 -16.53125 29.675781 -18.433594 C 29.429688 -23.0625 30.089844 -27.773438 29.925781 -32.402344 C 29.925781 -33.230469 29.757812 -34.386719 30.335938 -35.132812 C 33.394531 -35.378906 36.539062 -35.378906 39.511719 -35.378906 C 40.257812 -35.875 40.175781 -36.371094 40.175781 -37.035156 C 40.175781 -38.191406 40.09375 -39.429688 40.175781 -40.585938 C 40.175781 -41.332031 40.257812 -42.242188 40.09375 -42.984375 C 39.347656 -43.234375 38.519531 -43.316406 37.777344 -43.234375 C 35.296875 -43.066406 32.734375 -43.480469 30.007812 -43.152344 L 30.007812 -54.640625 C 27.195312 -55.136719 24.714844 -54.640625 22.402344 -54.722656 Z M 21.078125 -46.042969 C 21.160156 -44.140625 21.246094 -43.316406 21.246094 -41.910156 C 21.246094 -40.09375 21.078125 -38.273438 20.996094 -36.539062 C 20.914062 -35.214844 20.914062 -33.976562 21.078125 -32.652344 C 21.246094 -31 20.996094 -29.34375 20.914062 -27.691406 C 20.914062 -23.0625 20.75 -18.433594 21.078125 -13.804688 C 21.328125 -10.085938 22.816406 -6.695312 26.203125 -4.628906 C 26.867188 -4.214844 27.527344 -3.800781 28.269531 -3.390625 C 24.632812 -2.148438 21.328125 -2.5625 18.269531 -4.546875 C 16.367188 -5.867188 15.128906 -7.851562 14.714844 -10.167969 C 13.96875 -14.21875 13.472656 -18.269531 13.558594 -22.320312 C 13.804688 -27.859375 13.96875 -33.3125 13.96875 -38.769531 C 13.96875 -39.761719 14.054688 -40.175781 14.136719 -41.332031 C 16.53125 -42.65625 18.929688 -43.8125 21.078125 -46.042969 Z M 21.078125 -46.042969 "/></g></g></g><g fill="#ff914d" fill-opacity="1"><g transform="translate(337.460523, 102.909224)"><g><path d="M 25.957031 -44.226562 C 23.476562 -43.894531 20.996094 -43.066406 18.597656 -42.242188 C 11.574219 -39.761719 6.859375 -35.132812 4.710938 -27.859375 C 3.71875 -24.386719 3.554688 -20.996094 3.886719 -17.441406 C 4.214844 -14.136719 5.375 -11.078125 7.273438 -8.433594 C 10.167969 -4.464844 13.804688 -1.40625 18.847656 -0.246094 C 18.929688 -0.246094 19.011719 -0.164062 19.179688 -0.164062 C 21.90625 0.992188 24.800781 1.15625 27.691406 1.40625 C 30.253906 1.652344 32.816406 1.40625 35.296875 1.40625 C 41.578125 1.074219 47.367188 -0.332031 52.160156 -4.710938 C 53.234375 -5.621094 53.980469 -6.777344 54.886719 -7.9375 C 56.292969 -9.753906 57.285156 -11.820312 57.863281 -14.136719 C 58.609375 -17.359375 58.9375 -20.664062 58.277344 -23.972656 C 57.617188 -27.195312 56.789062 -30.253906 55.054688 -33.066406 C 52.574219 -36.949219 49.433594 -39.84375 45.300781 -41.664062 C 42.902344 -42.738281 40.421875 -43.5625 37.859375 -44.058594 C 33.890625 -44.804688 29.925781 -44.804688 25.957031 -44.226562 Z M 22.980469 -39.679688 C 23.394531 -39.761719 23.808594 -39.84375 24.21875 -39.597656 C 23.890625 -39.101562 23.394531 -38.933594 22.898438 -38.6875 C 18.351562 -35.957031 16.367188 -31.660156 15.539062 -26.617188 C 14.960938 -22.484375 15.210938 -18.515625 16.449219 -14.546875 C 17.855469 -10.085938 20.335938 -6.449219 24.386719 -3.96875 L 24.882812 -3.71875 C 20.582031 -3.390625 16.945312 -4.710938 13.804688 -7.605469 C 11.820312 -9.421875 10.5 -11.65625 9.257812 -13.96875 C 9.011719 -14.382812 8.761719 -14.878906 8.84375 -15.375 C 8.347656 -16.367188 8.433594 -17.027344 8.183594 -17.855469 C 7.523438 -19.675781 7.769531 -21.65625 8.101562 -23.558594 C 8.515625 -25.542969 8.761719 -27.609375 9.589844 -29.59375 C 11.242188 -33.5625 14.054688 -36.289062 17.855469 -37.941406 C 19.589844 -38.605469 21.160156 -39.597656 22.980469 -39.679688 Z M 38.4375 -37.777344 C 42.65625 -36.867188 45.300781 -34.304688 47.367188 -30.917969 C 49.679688 -26.949219 49.929688 -22.566406 49.515625 -18.101562 C 49.265625 -14.960938 47.945312 -12.152344 46.125 -9.671875 C 43.894531 -6.695312 40.835938 -4.878906 37.199219 -3.886719 C 36.621094 -3.71875 35.957031 -3.636719 35.214844 -3.886719 C 35.460938 -4.132812 35.710938 -4.296875 35.957031 -4.464844 C 38.355469 -5.539062 39.761719 -7.605469 40.671875 -10.003906 C 42.820312 -15.625 43.480469 -21.410156 42.40625 -27.363281 C 41.828125 -31.164062 41.25 -32.984375 38.4375 -37.777344 Z M 31.90625 -35.460938 C 33.5625 -35.296875 34.800781 -34.472656 35.875 -33.3125 C 37.941406 -31.082031 38.273438 -27.941406 38.4375 -25.046875 L 38.4375 -21.574219 C 38.4375 -18.597656 38.273438 -15.625 37.363281 -12.8125 C 36.867188 -11.40625 36.207031 -10.085938 35.132812 -9.09375 C 32.570312 -6.449219 29.097656 -7.109375 26.949219 -9.835938 C 26.285156 -10.582031 25.625 -11.574219 25.296875 -12.480469 C 24.21875 -15.292969 24.054688 -18.269531 23.890625 -21.160156 C 23.640625 -24.800781 24.800781 -28.1875 26.039062 -31.578125 C 26.949219 -34.140625 29.34375 -35.710938 31.90625 -35.460938 Z M 31.90625 -35.460938 "/></g></g></g><g fill="#ff914d" fill-opacity="1"><g transform="translate(399.779484, 102.909224)"><g><path d="M 41.414062 -43.8125 C 33.644531 -44.554688 28.851562 -42.160156 23.476562 -37.035156 C 21.988281 -38.933594 21.328125 -41.414062 19.675781 -42.984375 C 19.757812 -43.480469 8.019531 -43.152344 4.960938 -42.820312 C 5.621094 -28.519531 6.035156 -14.136719 5.867188 -0.246094 C 6.53125 0.332031 7.027344 0.246094 7.523438 0.164062 C 9.671875 0.0820312 11.820312 0.0820312 13.96875 -0.0820312 C 16.945312 -0.414062 19.921875 -0.164062 22.898438 -0.246094 C 24.46875 -0.246094 24.800781 -0.578125 24.964844 -2.148438 L 24.964844 -3.472656 C 24.882812 -4.792969 24.800781 -6.199219 24.882812 -7.523438 C 25.046875 -14.546875 24.714844 -20.75 24.882812 -27.773438 C 25.210938 -28.355469 25.792969 -28.683594 26.285156 -29.179688 C 29.59375 -31.992188 32.488281 -32.15625 36.207031 -31.824219 C 37.695312 -31.660156 39.183594 -31.164062 40.421875 -30.253906 C 40.835938 -29.925781 41.25 -29.839844 41.746094 -30.253906 C 42.242188 -31.578125 41.910156 -33.066406 41.910156 -34.554688 C 41.992188 -35.957031 41.992188 -37.777344 41.910156 -39.183594 C 41.828125 -40.671875 41.992188 -41.992188 41.414062 -43.8125 Z M 8.679688 -39.015625 C 10.910156 -39.101562 13.144531 -39.429688 15.539062 -38.933594 L 16.035156 -4.214844 C 14.300781 -3.636719 11.492188 -3.304688 9.507812 -3.554688 C 9.09375 -5.042969 9.011719 -6.613281 8.925781 -8.183594 C 8.925781 -12.152344 8.679688 -16.121094 8.84375 -20.003906 C 9.011719 -22.898438 8.761719 -25.792969 8.515625 -28.683594 C 8.183594 -32.074219 8.515625 -35.460938 8.679688 -39.015625 Z M 8.679688 -39.015625 "/></g></g></g><g fill="#ff914d" fill-opacity="1"><g transform="translate(444.989664, 102.909224)"><g><path d="M 31.246094 -44.554688 C 27.859375 -44.886719 24.632812 -44.554688 21.246094 -43.730469 C 18.515625 -43.066406 17.441406 -42.40625 15.375 -41.414062 C 12.894531 -40.257812 10.996094 -38.605469 9.339844 -36.539062 C 6.363281 -32.816406 4.710938 -28.601562 3.96875 -24.054688 C 3.390625 -20.417969 3.800781 -16.78125 4.960938 -13.226562 C 6.199219 -9.671875 8.433594 -6.945312 11.242188 -4.792969 C 13.96875 -2.726562 16.285156 -1.324219 19.589844 -0.332031 C 22.238281 0.496094 23.972656 0.496094 26.617188 0.910156 C 29.34375 1.40625 32.15625 1.238281 34.800781 0.910156 C 39.183594 0.578125 41.746094 -0.246094 45.628906 -2.316406 C 47.613281 -3.390625 49.679688 -5.207031 51.335938 -7.027344 C 49.847656 -10.085938 48.027344 -13.640625 47.449219 -13.226562 C 46.539062 -12.8125 45.796875 -11.738281 45.050781 -11.160156 C 42.242188 -9.257812 40.753906 -8.101562 37.28125 -7.769531 C 34.472656 -7.441406 31.742188 -7.605469 29.261719 -8.925781 C 26.121094 -10.5 24.21875 -14.300781 24.714844 -17.691406 C 25.460938 -17.773438 26.285156 -18.019531 27.03125 -18.019531 C 31.082031 -17.773438 35.050781 -18.101562 39.101562 -17.855469 C 43.5625 -17.605469 45.796875 -18.019531 50.257812 -18.019531 C 50.839844 -18.019531 51.832031 -17.773438 51.914062 -18.351562 C 51.996094 -18.597656 52.078125 -19.09375 52.078125 -19.34375 C 52.324219 -24.632812 51.996094 -28.765625 49.597656 -33.230469 C 48.9375 -34.386719 48.441406 -35.710938 47.449219 -36.703125 C 42.570312 -41.496094 38.109375 -43.894531 31.246094 -44.554688 Z M 25.296875 -40.257812 C 22.734375 -38.769531 20.75 -36.453125 19.011719 -34.386719 C 17.195312 -32.238281 16.367188 -29.839844 15.707031 -27.277344 C 14.878906 -24.304688 15.210938 -23.476562 14.878906 -20.5 C 14.878906 -20.085938 15.210938 -17.113281 15.292969 -16.78125 C 16.121094 -12.976562 17.113281 -10.085938 19.675781 -7.273438 C 20.996094 -6.117188 22.566406 -5.457031 24.136719 -4.710938 C 24.800781 -4.382812 25.460938 -4.132812 26.121094 -3.800781 C 22.734375 -3.304688 20.582031 -4.214844 17.441406 -5.289062 C 16.121094 -5.785156 15.375 -6.449219 13.96875 -7.441406 C 9.339844 -10.746094 7.191406 -15.210938 7.191406 -20.914062 C 7.273438 -25.210938 8.925781 -29.675781 11.40625 -33.066406 C 15.375 -38.4375 18.929688 -39.761719 25.296875 -40.257812 Z M 33.726562 -38.933594 C 35.460938 -39.183594 37.035156 -38.605469 38.191406 -37.777344 C 41.992188 -34.800781 43.730469 -30.335938 43.894531 -25.210938 C 41.828125 -24.964844 39.84375 -25.128906 37.613281 -25.128906 C 37.53125 -27.859375 37.363281 -30.335938 36.949219 -32.734375 C 36.539062 -34.964844 35.628906 -36.785156 34.058594 -38.355469 C 33.976562 -38.4375 33.890625 -38.605469 33.726562 -38.933594 Z M 32.320312 -34.554688 C 32.652344 -34.222656 32.898438 -33.890625 33.066406 -33.480469 C 33.808594 -30.917969 34.304688 -28.355469 33.5625 -25.460938 C 30.421875 -25.625 27.527344 -25.128906 24.386719 -25.460938 C 24.550781 -28.355469 24.882812 -31.164062 26.535156 -33.644531 C 27.859375 -35.710938 30.667969 -36.125 32.320312 -34.554688 Z M 32.320312 -34.554688 "/></g></g></g><g fill="#000000" fill-opacity="1"><g transform="translate(277.160145, 28.208781)"><g><path d="M 6.15625 0 L 2.234375 -12.046875 L 0.671875 -12.046875 L 0.671875 -12.953125 L 5.296875 -12.953125 L 5.296875 -12.046875 L 3.5625 -12.046875 L 6.828125 -1.71875 L 10.375 -12.53125 L 11.359375 -12.53125 L 14.875 -1.71875 L 18.078125 -12.046875 L 16.375 -12.046875 L 16.375 -12.953125 L 20.859375 -12.953125 L 20.859375 -12.046875 L 19.25 -12.046875 L 15.4375 0 L 14.21875 0 L 10.8125 -10.34375 L 7.390625 0 Z M 6.15625 0 "/></g></g></g><g fill="#000000" fill-opacity="1"><g transform="translate(298.680896, 28.208781)"><g><path d="M 2.734375 -11.171875 C 2.460938 -11.171875 2.234375 -11.257812 2.046875 -11.4375 C 1.859375 -11.613281 1.765625 -11.832031 1.765625 -12.09375 C 1.765625 -12.351562 1.859375 -12.566406 2.046875 -12.734375 C 2.234375 -12.910156 2.460938 -13 2.734375 -13 C 3.015625 -13 3.242188 -12.910156 3.421875 -12.734375 C 3.609375 -12.566406 3.703125 -12.351562 3.703125 -12.09375 C 3.703125 -11.832031 3.609375 -11.613281 3.421875 -11.4375 C 3.242188 -11.257812 3.015625 -11.171875 2.734375 -11.171875 Z M 0.453125 0 L 0.453125 -0.890625 L 2.328125 -0.890625 L 2.328125 -8.140625 L 0.484375 -8.140625 L 0.484375 -9.03125 L 3.546875 -9.03125 L 3.546875 -0.890625 L 5.34375 -0.890625 L 5.34375 0 Z M 0.453125 0 "/></g></g></g><g fill="#000000" fill-opacity="1"><g transform="translate(304.52093, 28.208781)"><g><path d="M 4.765625 0 C 3.867188 0 3.191406 -0.203125 2.734375 -0.609375 C 2.273438 -1.015625 2.046875 -1.671875 2.046875 -2.578125 L 2.046875 -8.140625 L 0.453125 -8.140625 L 0.453125 -9.03125 L 2.046875 -9.03125 L 2.046875 -12.140625 L 3.28125 -12.609375 L 3.28125 -9.03125 L 5.796875 -9.03125 L 5.796875 -8.140625 L 3.28125 -8.140625 L 3.28125 -2.640625 C 3.28125 -1.992188 3.40625 -1.539062 3.65625 -1.28125 C 3.914062 -1.019531 4.34375 -0.890625 4.9375 -0.890625 L 6.09375 -0.890625 L 6.09375 0 Z M 4.765625 0 "/></g></g></g><g fill="#000000" fill-opacity="1"><g transform="translate(311.257654, 28.208781)"><g><path d="M 11.34375 -0.890625 L 11.34375 0 L 6.6875 0 L 6.6875 -0.890625 L 8.390625 -0.890625 L 8.390625 -6.25 C 8.390625 -6.894531 8.21875 -7.394531 7.875 -7.75 C 7.53125 -8.113281 7.066406 -8.296875 6.484375 -8.296875 C 5.597656 -8.296875 4.492188 -7.914062 3.171875 -7.15625 L 3.171875 -0.890625 L 4.71875 -0.890625 L 4.71875 0 L 0.25 0 L 0.25 -0.890625 L 1.9375 -0.890625 L 1.9375 -12.28125 L 0.296875 -12.28125 L 0.296875 -13.171875 L 3.171875 -13.171875 L 3.171875 -8 C 3.847656 -8.414062 4.460938 -8.726562 5.015625 -8.9375 C 5.578125 -9.15625 6.148438 -9.265625 6.734375 -9.265625 C 7.597656 -9.265625 8.296875 -9.003906 8.828125 -8.484375 C 9.367188 -7.960938 9.640625 -7.25 9.640625 -6.34375 L 9.640625 -0.890625 Z M 11.34375 -0.890625 "/></g></g></g></svg>