<svg xmlns="http://www.w3.org/2000/svg" xmlns:xlink="http://www.w3.org/1999/xlink" width="500" zoomAndPan="magnify" viewBox="0 0 375 149.999998" height="200" preserveAspectRatio="xMidYMid meet" version="1.0"><defs><g/></defs><g fill="#b12800" fill-opacity="1"><g transform="translate(43.292665, 96.007825)"><g><path d="M 43.808594 -40.621094 C 43.625 -41.296875 43.195312 -41.664062 42.460938 -41.664062 L 36.148438 -41.664062 C 35.476562 -41.664062 34.984375 -41.296875 34.800781 -40.621094 L 26.988281 -15.625 L 19.300781 -40.621094 C 19.117188 -41.296875 18.625 -41.664062 17.953125 -41.664062 L 11.640625 -41.664062 C 10.90625 -41.664062 10.476562 -41.296875 10.292969 -40.621094 L 0.304688 1.226562 C 6.066406 1.226562 10.785156 -3.0625 12.621094 -12.070312 L 15.5625 -26.164062 L 24.203125 1.226562 C 28.367188 0.121094 31.1875 -2.511719 33.945312 -11.394531 L 38.539062 -26.132812 L 43.746094 -1.101562 C 43.871094 -0.367188 44.359375 0 45.09375 0 L 52.082031 0 C 52.9375 0 53.367188 -0.550781 53.183594 -1.347656 Z M 43.808594 -40.621094 "/></g></g></g><g fill="#b12800" fill-opacity="1"><g transform="translate(97.264466, 96.007825)"><g><path d="M 22.976562 0 C 23.773438 0 24.203125 -0.429688 24.203125 -1.226562 L 24.203125 -19.914062 L 40.195312 -42.890625 C 33.148438 -42.890625 26.960938 -39.765625 23.222656 -33.699219 L 19.605469 -27.878906 L 15.992188 -33.699219 C 12.253906 -39.765625 6.066406 -42.890625 -0.980469 -42.890625 L 15.011719 -19.914062 L 15.011719 -1.226562 C 15.011719 -0.429688 15.441406 0 16.238281 0 Z M 22.976562 0 "/></g></g></g><g fill="#b12800" fill-opacity="1"><g transform="translate(136.472128, 96.007825)"><g/></g></g><g fill="#b12800" fill-opacity="1"><g transform="translate(152.400236, 96.007825)"><g><path d="M 17.890625 0.613281 C 25.183594 0.613281 33.945312 -2.511719 33.945312 -12.746094 C 33.945312 -21.691406 27.328125 -23.710938 21.261719 -25.058594 C 16.480469 -26.101562 12.132812 -26.589844 12.132812 -30.574219 C 12.132812 -33.394531 14.277344 -34.800781 17.523438 -34.800781 C 20.585938 -34.800781 22.976562 -33.578125 23.652344 -30.144531 C 23.773438 -29.347656 24.203125 -28.980469 24.9375 -28.980469 L 31.554688 -28.980469 C 32.351562 -28.980469 32.78125 -29.410156 32.71875 -30.269531 C 32.042969 -38.785156 24.691406 -42.277344 17.707031 -42.277344 C 10.417969 -42.277344 2.941406 -38.355469 2.941406 -29.289062 C 2.941406 -21.691406 8.210938 -19.484375 13.171875 -18.136719 C 18.871094 -16.605469 24.753906 -16.359375 24.753906 -11.394531 C 24.753906 -7.964844 21.875 -6.863281 18.808594 -6.863281 C 14.828125 -6.863281 11.824219 -8.761719 11.273438 -12.5625 C 11.210938 -13.296875 10.785156 -13.726562 10.046875 -13.726562 L 2.878906 -13.726562 C 2.082031 -13.726562 1.65625 -13.296875 1.65625 -12.5 C 2.144531 -3.1875 9.863281 0.613281 17.890625 0.613281 Z M 17.890625 0.613281 "/></g></g></g><g fill="#b12800" fill-opacity="1"><g transform="translate(188.238485, 96.007825)"><g><path d="M 1.46875 -41.664062 C 0.675781 -41.664062 0.246094 -41.234375 0.246094 -40.4375 L 0.246094 -34.558594 C 0.246094 -33.761719 0.675781 -33.332031 1.46875 -33.332031 L 17.644531 -33.332031 C 13.96875 -31.769531 11.519531 -27.359375 11.519531 -21.75 L 11.519531 -1.226562 C 11.519531 -0.429688 11.949219 0 12.746094 0 L 19.484375 0 C 20.28125 0 20.710938 -0.429688 20.710938 -1.226562 L 20.710938 -33.332031 L 30.757812 -33.332031 C 31.554688 -33.332031 31.984375 -33.761719 31.984375 -34.558594 L 31.984375 -40.4375 C 31.984375 -41.234375 31.554688 -41.664062 30.757812 -41.664062 Z M 1.46875 -41.664062 "/></g></g></g><g fill="#b12800" fill-opacity="1"><g transform="translate(220.523541, 96.007825)"><g><path d="M 23.039062 0.613281 C 35.90625 0.613281 44.484375 -7.71875 44.484375 -20.894531 C 44.484375 -33.945312 36.148438 -42.277344 23.097656 -42.277344 C 10.230469 -42.277344 1.65625 -34.128906 1.65625 -20.953125 C 1.65625 -7.964844 9.988281 0.613281 23.039062 0.613281 Z M 23.039062 -7.71875 C 16.296875 -7.71875 10.84375 -12.621094 10.84375 -20.953125 C 10.84375 -29.226562 16.296875 -33.945312 23.039062 -33.945312 C 29.898438 -33.945312 35.292969 -29.164062 35.292969 -20.953125 C 35.292969 -12.621094 29.898438 -7.71875 23.039062 -7.71875 Z M 23.039062 -7.71875 "/></g></g></g><g fill="#b12800" fill-opacity="1"><g transform="translate(266.653808, 96.007825)"><g><path d="M 30.328125 -7.597656 C 26.867188 -12.4375 22.824219 -15.074219 18.535156 -16.144531 C 28.339844 -16.542969 32.167969 -21.292969 32.167969 -28.613281 C 32.167969 -36.640625 28 -41.664062 17.15625 -41.664062 L 11.582031 -41.664062 L 11.582031 -41.632812 C 11.488281 -41.664062 11.394531 -41.664062 11.273438 -41.664062 L 4.535156 -41.664062 C 3.738281 -41.664062 3.308594 -41.234375 3.308594 -40.4375 L 3.308594 1.226562 C 8.640625 0.613281 12.5 -3.921875 12.5 -11.582031 L 12.5 -16.113281 L 12.929688 -16.113281 L 23.710938 -0.796875 C 24.140625 -0.246094 24.570312 0 25.183594 0 L 33.882812 0 C 34.558594 0 34.925781 -0.304688 34.925781 -0.796875 C 34.925781 -0.980469 34.863281 -1.226562 34.679688 -1.46875 Z M 22.976562 -28.308594 C 22.976562 -22.792969 18.136719 -22.730469 16.238281 -22.730469 L 12.5 -22.730469 L 12.5 -33.699219 L 16.238281 -33.699219 C 18.199219 -33.699219 22.976562 -33.761719 22.976562 -28.308594 Z M 22.976562 -28.308594 "/></g></g></g><g fill="#b12800" fill-opacity="1"><g transform="translate(302.001969, 96.007825)"><g><path d="M 25.980469 -33.332031 C 26.777344 -33.332031 27.203125 -33.761719 27.203125 -34.558594 L 27.203125 -40.4375 C 27.203125 -41.234375 26.777344 -41.664062 25.980469 -41.664062 L 4.289062 -41.664062 C 3.492188 -41.664062 3.0625 -41.234375 3.0625 -40.4375 L 3.0625 -34.558594 C 3.0625 -33.761719 3.492188 -33.332031 4.289062 -33.332031 L 9.773438 -33.332031 C 5.757812 -31.769531 3.0625 -27.542969 3.0625 -21.136719 L 3.0625 -1.226562 C 3.0625 -0.429688 3.492188 0 4.289062 0 L 25.980469 0 C 26.777344 0 27.203125 -0.429688 27.203125 -1.226562 L 27.203125 -7.109375 C 27.203125 -7.902344 26.777344 -8.332031 25.980469 -8.332031 L 12.253906 -8.332031 L 12.253906 -23.253906 C 13.726562 -19.730469 17.523438 -17.339844 23.28125 -17.339844 L 25.367188 -17.339844 C 26.164062 -17.339844 26.589844 -17.769531 26.589844 -18.566406 L 26.589844 -24.445312 C 26.589844 -25.242188 26.164062 -25.671875 25.367188 -25.671875 L 12.253906 -25.671875 L 12.253906 -33.332031 Z M 25.980469 -33.332031 "/></g></g></g></svg>