<svg xmlns="http://www.w3.org/2000/svg" xmlns:xlink="http://www.w3.org/1999/xlink" width="500" zoomAndPan="magnify" viewBox="0 0 375 374.999991" height="500" preserveAspectRatio="xMidYMid meet" version="1.0"><defs><clipPath id="50559636f3"><path d="M 10.46875 82 L 29 82 L 29 102 L 10.46875 102 Z M 10.46875 82 " clip-rule="nonzero"/></clipPath><clipPath id="b6a2c03b51"><path d="M 318 10.46875 L 356 10.46875 L 356 47 L 318 47 Z M 318 10.46875 " clip-rule="nonzero"/></clipPath><clipPath id="7367649a48"><path d="M 346 60 L 364.46875 60 L 364.46875 79 L 346 79 Z M 346 60 " clip-rule="nonzero"/></clipPath><clipPath id="7221582108"><path d="M 10.46875 228 L 338 228 L 338 315 L 10.46875 315 Z M 10.46875 228 " clip-rule="nonzero"/></clipPath><clipPath id="ce6c25c0c7"><path d="M 64 346 L 83 346 L 83 364.46875 L 64 364.46875 Z M 64 346 " clip-rule="nonzero"/></clipPath></defs><g clip-path="url(#50559636f3)"><path fill="#ee3e54" d="M 19.433594 82.894531 C 14.417969 82.894531 10.355469 86.957031 10.355469 91.96875 C 10.355469 96.984375 14.417969 101.046875 19.433594 101.046875 C 24.445312 101.046875 28.507812 96.984375 28.507812 91.96875 C 28.507812 86.957031 24.445312 82.894531 19.433594 82.894531 Z M 19.433594 82.894531 " fill-opacity="1" fill-rule="nonzero"/></g><path fill="#f1bc19" d="M 309.894531 14.816406 C 307.394531 14.816406 305.355469 16.855469 305.355469 19.355469 C 305.355469 21.855469 307.394531 23.894531 309.894531 23.894531 C 312.394531 23.894531 314.433594 21.855469 314.433594 19.355469 C 314.433594 16.855469 312.394531 14.816406 309.894531 14.816406 Z M 309.894531 14.816406 " fill-opacity="1" fill-rule="nonzero"/><path fill="#fce0a2" d="M 187.355469 19.355469 C 94.617188 19.355469 19.433594 94.539062 19.433594 187.277344 C 19.433594 280.015625 94.617188 355.203125 187.355469 355.203125 C 280.09375 355.203125 355.277344 280.015625 355.277344 187.277344 C 355.277344 94.539062 280.09375 19.355469 187.355469 19.355469 Z M 187.355469 19.355469 " fill-opacity="1" fill-rule="nonzero"/><g clip-path="url(#b6a2c03b51)"><path fill="#f1bc19" d="M 337.125 10.277344 C 327.089844 10.277344 318.96875 18.398438 318.96875 28.433594 C 318.96875 38.464844 327.089844 46.585938 337.125 46.585938 C 347.160156 46.585938 355.277344 38.464844 355.277344 28.433594 C 355.277344 18.398438 347.160156 10.277344 337.125 10.277344 Z M 337.125 10.277344 " fill-opacity="1" fill-rule="nonzero"/></g><g clip-path="url(#7367649a48)"><path fill="#ee3e54" d="M 355.277344 60.203125 C 350.261719 60.203125 346.203125 64.261719 346.203125 69.277344 C 346.203125 74.292969 350.261719 78.355469 355.277344 78.355469 C 360.292969 78.355469 364.355469 74.292969 364.355469 69.277344 C 364.355469 64.261719 360.292969 60.203125 355.277344 60.203125 Z M 355.277344 60.203125 " fill-opacity="1" fill-rule="nonzero"/></g><g clip-path="url(#7221582108)"><path fill="#fbcd59" d="M 328.046875 296.203125 C 323.03125 296.203125 318.96875 300.261719 318.96875 305.277344 C 318.96875 310.292969 323.03125 314.355469 328.046875 314.355469 C 333.0625 314.355469 337.125 310.292969 337.125 305.277344 C 337.125 300.261719 333.0625 296.203125 328.046875 296.203125 Z M 28.507812 228.125 C 18.472656 228.125 10.355469 236.242188 10.355469 246.277344 C 10.355469 256.3125 18.472656 264.433594 28.507812 264.433594 C 38.542969 264.433594 46.664062 256.3125 46.664062 246.277344 C 46.664062 236.242188 38.542969 228.125 28.507812 228.125 Z M 28.507812 228.125 " fill-opacity="1" fill-rule="nonzero"/></g><g clip-path="url(#ce6c25c0c7)"><path fill="#ee3e54" d="M 73.894531 346.125 C 68.878906 346.125 64.816406 350.1875 64.816406 355.203125 C 64.816406 360.214844 68.878906 364.277344 73.894531 364.277344 C 78.910156 364.277344 82.96875 360.214844 82.96875 355.203125 C 82.96875 350.1875 78.910156 346.125 73.894531 346.125 Z M 73.894531 346.125 " fill-opacity="1" fill-rule="nonzero"/></g><path fill="#ffffff" d="M 44.394531 196.355469 C 38.136719 196.355469 33.046875 201.441406 33.046875 207.703125 C 33.046875 213.960938 38.136719 219.046875 44.394531 219.046875 C 50.652344 219.046875 55.738281 213.960938 55.738281 207.703125 C 55.738281 201.441406 50.652344 196.355469 44.394531 196.355469 Z M 44.394531 196.355469 " fill-opacity="1" fill-rule="nonzero"/><path fill="#f1bc19" d="M 55.738281 255.355469 C 53.238281 255.355469 51.203125 257.394531 51.203125 259.894531 C 51.203125 262.394531 53.238281 264.433594 55.738281 264.433594 C 58.242188 264.433594 60.277344 262.394531 60.277344 259.894531 C 60.277344 257.394531 58.242188 255.355469 55.738281 255.355469 Z M 55.738281 255.355469 " fill-opacity="1" fill-rule="nonzero"/><path fill="#ffffff" d="M 332.585938 128.277344 C 330.085938 128.277344 328.046875 130.316406 328.046875 132.816406 C 328.046875 135.316406 330.085938 137.355469 332.585938 137.355469 C 335.085938 137.355469 337.125 135.316406 337.125 132.816406 C 337.125 130.316406 335.085938 128.277344 332.585938 128.277344 Z M 332.585938 128.277344 " fill-opacity="1" fill-rule="nonzero"/><path fill="#78a1d1" d="M 320.054688 182.933594 L 280.089844 192.722656 L 280.089844 243.910156 L 320.054688 253.699219 C 325.722656 255.085938 331.050781 250.03125 331.050781 243.261719 L 331.050781 193.375 C 331.050781 186.601562 325.722656 181.546875 320.054688 182.933594 Z M 320.054688 182.933594 " fill-opacity="1" fill-rule="nonzero"/><path fill="#472b29" d="M 320.476562 257.105469 C 319.578125 257.105469 318.675781 257.003906 317.785156 256.789062 L 276.644531 247 C 275.183594 246.65625 274.152344 245.378906 274.152344 243.914062 L 274.152344 192.730469 C 274.152344 191.265625 275.183594 189.988281 276.644531 189.644531 L 317.78125 179.847656 L 317.785156 179.847656 C 321.230469 179.027344 324.863281 179.816406 327.734375 182.019531 C 331.128906 184.601562 333.152344 188.847656 333.152344 193.378906 L 333.152344 243.269531 C 333.152344 247.792969 331.125 252.042969 327.738281 254.625 C 325.605469 256.253906 323.054688 257.105469 320.476562 257.105469 Z M 280.691406 241.421875 L 319.339844 250.617188 C 321.238281 251.066406 322.765625 250.332031 323.699219 249.617188 C 325.519531 248.230469 326.609375 245.851562 326.609375 243.265625 L 326.609375 193.375 C 326.609375 190.78125 325.519531 188.398438 323.695312 187.011719 C 322.769531 186.308594 321.253906 185.570312 319.339844 186.015625 L 280.691406 195.214844 Z M 280.691406 241.421875 " fill-opacity="1" fill-rule="nonzero"/><path fill="#472b29" d="M 311.171875 236.851562 L 282.222656 236.851562 C 281.285156 236.851562 280.519531 236.089844 280.519531 235.148438 C 280.519531 234.210938 281.285156 233.449219 282.222656 233.449219 L 311.171875 233.449219 C 312.113281 233.449219 312.875 234.210938 312.875 235.148438 C 312.875 236.089844 312.113281 236.851562 311.171875 236.851562 Z M 316.9375 236.851562 L 315.585938 236.851562 C 314.644531 236.851562 313.882812 236.089844 313.882812 235.148438 C 313.882812 234.210938 314.644531 233.449219 315.585938 233.449219 L 316.9375 233.449219 C 317.875 233.449219 318.640625 234.210938 318.640625 235.148438 C 318.640625 236.089844 317.875 236.851562 316.9375 236.851562 Z M 331.59375 236.851562 L 323.621094 236.851562 C 322.683594 236.851562 321.921875 236.089844 321.921875 235.148438 C 321.921875 234.210938 322.683594 233.449219 323.621094 233.449219 L 331.59375 233.449219 C 332.53125 233.449219 333.292969 234.210938 333.292969 235.148438 C 333.292969 236.089844 332.53125 236.851562 331.59375 236.851562 Z M 331.59375 236.851562 " fill-opacity="1" fill-rule="nonzero"/><path fill="#78a1d1" d="M 243.65625 273.84375 L 103.113281 273.84375 C 84.015625 273.84375 68.382812 258.21875 68.382812 239.117188 L 68.382812 184.8125 C 68.382812 165.714844 84.011719 150.085938 103.113281 150.085938 L 243.65625 150.085938 C 262.753906 150.085938 278.382812 165.710938 278.382812 184.8125 L 278.382812 239.117188 C 278.382812 258.214844 262.753906 273.84375 243.65625 273.84375 Z M 243.65625 273.84375 " fill-opacity="1" fill-rule="nonzero"/><path fill="#472b29" d="M 245.066406 278.238281 L 103.550781 278.238281 C 82.511719 278.238281 65.382812 261.074219 65.382812 239.980469 L 65.382812 185.164062 C 65.382812 164.074219 82.507812 146.902344 103.550781 146.902344 L 245.0625 146.902344 C 266.101562 146.902344 283.226562 164.070312 283.226562 185.164062 L 283.226562 239.980469 C 283.226562 261.074219 266.101562 278.238281 245.066406 278.238281 Z M 103.550781 153.320312 C 86.035156 153.320312 71.785156 167.605469 71.785156 185.164062 L 71.785156 239.980469 C 71.785156 257.539062 86.03125 271.820312 103.550781 271.820312 L 245.0625 271.820312 C 262.574219 271.820312 276.828125 257.539062 276.828125 239.980469 L 276.828125 185.164062 C 276.828125 167.605469 262.582031 153.320312 245.0625 153.320312 Z M 103.550781 153.320312 " fill-opacity="1" fill-rule="nonzero"/><path fill="#472b29" d="M 278.378906 236.851562 L 68.382812 236.851562 C 67.445312 236.851562 66.683594 236.089844 66.683594 235.148438 C 66.683594 234.210938 67.445312 233.449219 68.382812 233.449219 L 278.382812 233.449219 C 279.324219 233.449219 280.085938 234.210938 280.085938 235.148438 C 280.085938 236.089844 279.316406 236.851562 278.378906 236.851562 Z M 278.378906 236.851562 " fill-opacity="1" fill-rule="nonzero"/><path fill="#fdfcee" d="M 241.957031 247.375 C 239.011719 247.375 236.621094 249.769531 236.621094 252.714844 C 236.621094 255.660156 239.011719 258.050781 241.957031 258.050781 C 244.902344 258.050781 247.292969 255.660156 247.292969 252.714844 C 247.292969 249.769531 244.902344 247.375 241.957031 247.375 Z M 241.957031 247.375 " fill-opacity="1" fill-rule="nonzero"/><path fill="#472b29" d="M 241.957031 260.320312 C 237.765625 260.320312 234.351562 256.90625 234.351562 252.714844 C 234.351562 248.519531 237.765625 245.105469 241.957031 245.105469 C 246.152344 245.105469 249.5625 248.519531 249.5625 252.714844 C 249.5625 256.90625 246.152344 260.320312 241.957031 260.320312 Z M 241.957031 249.648438 C 240.265625 249.648438 238.890625 251.023438 238.890625 252.71875 C 238.890625 254.410156 240.265625 255.785156 241.957031 255.785156 C 243.648438 255.785156 245.027344 254.410156 245.027344 252.71875 C 245.027344 251.023438 243.648438 249.648438 241.957031 249.648438 Z M 241.957031 249.648438 " fill-opacity="1" fill-rule="nonzero"/><path fill="#f1bc19" d="M 226.15625 86.945312 C 199.226562 86.945312 177.398438 108.777344 177.398438 135.703125 C 177.398438 162.628906 199.226562 184.460938 226.15625 184.460938 C 253.082031 184.460938 274.910156 162.628906 274.910156 135.703125 C 274.910156 108.777344 253.082031 86.945312 226.15625 86.945312 Z M 226.15625 86.945312 " fill-opacity="1" fill-rule="nonzero"/><path fill="#472b29" d="M 226.148438 187.636719 C 197.511719 187.636719 174.222656 164.335938 174.222656 135.703125 C 174.222656 107.070312 197.515625 83.769531 226.148438 83.769531 C 254.785156 83.769531 278.082031 107.070312 278.082031 135.703125 C 278.082031 164.335938 254.789062 187.636719 226.148438 187.636719 Z M 226.148438 90.125 C 201.019531 90.125 180.574219 110.570312 180.574219 135.703125 C 180.574219 160.835938 201.019531 181.28125 226.148438 181.28125 C 251.285156 181.28125 271.730469 160.835938 271.730469 135.703125 C 271.730469 110.570312 251.289062 90.125 226.148438 90.125 Z M 226.148438 90.125 " fill-opacity="1" fill-rule="nonzero"/><path fill="#ffffff" d="M 226.15625 132.222656 C 224.230469 132.222656 222.671875 133.777344 222.671875 135.703125 C 222.671875 137.628906 224.230469 139.183594 226.15625 139.183594 C 228.078125 139.183594 229.636719 137.628906 229.636719 135.703125 C 229.636719 133.777344 228.078125 132.222656 226.15625 132.222656 Z M 226.15625 132.222656 " fill-opacity="1" fill-rule="nonzero"/><path fill="#472b29" d="M 226.148438 140.890625 C 223.289062 140.890625 220.96875 138.5625 220.96875 135.703125 C 220.96875 132.84375 223.289062 130.515625 226.148438 130.515625 C 229.007812 130.515625 231.335938 132.84375 231.335938 135.703125 C 231.335938 138.5625 229.007812 140.890625 226.148438 140.890625 Z M 226.148438 133.925781 C 225.167969 133.925781 224.371094 134.722656 224.371094 135.707031 C 224.371094 136.691406 225.167969 137.492188 226.148438 137.492188 C 227.136719 137.492188 227.933594 136.691406 227.933594 135.707031 C 227.933594 134.722656 227.136719 133.925781 226.148438 133.925781 Z M 226.148438 133.925781 " fill-opacity="1" fill-rule="nonzero"/><path fill="#fdfcee" d="M 226.15625 98.265625 C 218.941406 98.265625 213.09375 104.117188 213.09375 111.328125 C 213.09375 118.539062 218.941406 124.386719 226.15625 124.386719 C 233.367188 124.386719 239.214844 118.539062 239.214844 111.328125 C 239.214844 104.117188 233.367188 98.265625 226.15625 98.265625 Z M 226.15625 98.265625 " fill-opacity="1" fill-rule="nonzero"/><path fill="#472b29" d="M 226.148438 126.085938 C 218.011719 126.085938 211.390625 119.464844 211.390625 111.328125 C 211.390625 103.183594 218.011719 96.5625 226.148438 96.5625 C 234.292969 96.5625 240.914062 103.183594 240.914062 111.328125 C 240.914062 119.464844 234.292969 126.085938 226.148438 126.085938 Z M 226.148438 99.96875 C 219.886719 99.96875 214.792969 105.0625 214.792969 111.328125 C 214.792969 117.589844 219.886719 122.683594 226.148438 122.683594 C 232.414062 122.683594 237.511719 117.589844 237.511719 111.328125 C 237.511719 105.0625 232.414062 99.96875 226.148438 99.96875 Z M 226.148438 99.96875 " fill-opacity="1" fill-rule="nonzero"/><path fill="#fdfcee" d="M 226.15625 147.023438 C 218.941406 147.023438 213.09375 152.871094 213.09375 160.082031 C 213.09375 167.296875 218.941406 173.144531 226.15625 173.144531 C 233.367188 173.144531 239.214844 167.296875 239.214844 160.082031 C 239.214844 152.871094 233.367188 147.023438 226.15625 147.023438 Z M 226.15625 147.023438 " fill-opacity="1" fill-rule="nonzero"/><path fill="#472b29" d="M 226.148438 174.84375 C 218.011719 174.84375 211.390625 168.222656 211.390625 160.082031 C 211.390625 151.941406 218.011719 145.320312 226.148438 145.320312 C 234.292969 145.320312 240.914062 151.941406 240.914062 160.082031 C 240.914062 168.222656 234.292969 174.84375 226.148438 174.84375 Z M 226.148438 148.722656 C 219.886719 148.722656 214.792969 153.820312 214.792969 160.082031 C 214.792969 166.347656 219.886719 171.4375 226.148438 171.4375 C 232.414062 171.4375 237.511719 166.347656 237.511719 160.082031 C 237.511719 153.820312 232.414062 148.722656 226.148438 148.722656 Z M 226.148438 148.722656 " fill-opacity="1" fill-rule="nonzero"/><path fill="#fdfcee" d="M 249.664062 122.640625 C 242.453125 122.640625 236.601562 128.492188 236.601562 135.703125 C 236.601562 142.914062 242.453125 148.765625 249.664062 148.765625 C 256.875 148.765625 262.726562 142.914062 262.726562 135.703125 C 262.726562 128.492188 256.875 122.640625 249.664062 122.640625 Z M 249.664062 122.640625 " fill-opacity="1" fill-rule="nonzero"/><path fill="#472b29" d="M 249.660156 150.464844 C 241.523438 150.464844 234.898438 143.84375 234.898438 135.703125 C 234.898438 127.566406 241.523438 120.945312 249.660156 120.945312 C 257.800781 120.945312 264.421875 127.566406 264.421875 135.703125 C 264.421875 143.84375 257.800781 150.464844 249.660156 150.464844 Z M 249.660156 124.347656 C 243.394531 124.347656 238.304688 129.441406 238.304688 135.703125 C 238.304688 141.964844 243.394531 147.0625 249.660156 147.0625 C 255.921875 147.0625 261.019531 141.964844 261.019531 135.703125 C 261.019531 129.441406 255.921875 124.347656 249.660156 124.347656 Z M 249.660156 124.347656 " fill-opacity="1" fill-rule="nonzero"/><path fill="#fdfcee" d="M 202.644531 122.640625 C 195.433594 122.640625 189.582031 128.492188 189.582031 135.703125 C 189.582031 142.914062 195.433594 148.765625 202.644531 148.765625 C 209.855469 148.765625 215.707031 142.914062 215.707031 135.703125 C 215.707031 128.492188 209.855469 122.640625 202.644531 122.640625 Z M 202.644531 122.640625 " fill-opacity="1" fill-rule="nonzero"/><path fill="#472b29" d="M 202.644531 150.464844 C 194.507812 150.464844 187.886719 143.84375 187.886719 135.703125 C 187.886719 127.566406 194.507812 120.945312 202.644531 120.945312 C 210.789062 120.945312 217.410156 127.566406 217.410156 135.703125 C 217.410156 143.84375 210.789062 150.464844 202.644531 150.464844 Z M 202.644531 124.347656 C 196.382812 124.347656 191.289062 129.441406 191.289062 135.703125 C 191.289062 141.964844 196.382812 147.0625 202.644531 147.0625 C 208.910156 147.0625 214.003906 141.964844 214.003906 135.703125 C 214.003906 129.441406 208.910156 124.347656 202.644531 124.347656 Z M 202.644531 124.347656 " fill-opacity="1" fill-rule="nonzero"/><path fill="#f1bc19" d="M 126.390625 86.941406 C 99.503906 86.941406 77.710938 108.734375 77.710938 135.621094 C 77.710938 162.507812 99.503906 184.300781 126.390625 184.300781 C 153.277344 184.300781 175.070312 162.507812 175.070312 135.621094 C 175.070312 108.734375 153.277344 86.941406 126.390625 86.941406 Z M 126.390625 86.941406 " fill-opacity="1" fill-rule="nonzero"/><path fill="#472b29" d="M 126.386719 187.46875 C 97.792969 187.46875 74.539062 164.203125 74.539062 135.617188 C 74.539062 107.027344 97.796875 83.769531 126.386719 83.769531 C 154.972656 83.769531 178.234375 107.035156 178.234375 135.617188 C 178.234375 164.199219 154.976562 187.46875 126.386719 187.46875 Z M 126.386719 90.113281 C 101.296875 90.113281 80.882812 110.527344 80.882812 135.621094 C 80.882812 160.714844 101.296875 181.128906 126.386719 181.128906 C 151.480469 181.128906 171.894531 160.714844 171.894531 135.621094 C 171.894531 110.527344 151.488281 90.113281 126.386719 90.113281 Z M 126.386719 90.113281 " fill-opacity="1" fill-rule="nonzero"/><path fill="#ffffff" d="M 126.390625 132.144531 C 124.46875 132.144531 122.914062 133.703125 122.914062 135.621094 C 122.914062 137.542969 124.46875 139.097656 126.390625 139.097656 C 128.308594 139.097656 129.867188 137.542969 129.867188 135.621094 C 129.867188 133.703125 128.308594 132.144531 126.390625 132.144531 Z M 126.390625 132.144531 " fill-opacity="1" fill-rule="nonzero"/><path fill="#472b29" d="M 126.386719 140.800781 C 123.53125 140.800781 121.210938 138.476562 121.210938 135.621094 C 121.210938 132.765625 123.53125 130.441406 126.386719 130.441406 C 129.242188 130.441406 131.5625 132.765625 131.5625 135.621094 C 131.570312 138.472656 129.242188 140.800781 126.386719 140.800781 Z M 126.386719 133.84375 C 125.40625 133.84375 124.609375 134.640625 124.609375 135.621094 C 124.609375 136.601562 125.410156 137.402344 126.386719 137.402344 C 127.371094 137.402344 128.164062 136.601562 128.164062 135.621094 C 128.164062 134.640625 127.371094 133.84375 126.386719 133.84375 Z M 126.386719 133.84375 " fill-opacity="1" fill-rule="nonzero"/><path fill="#fdfcee" d="M 126.390625 98.242188 C 119.1875 98.242188 113.351562 104.078125 113.351562 111.28125 C 113.351562 118.484375 119.1875 124.320312 126.390625 124.320312 C 133.59375 124.320312 139.429688 118.484375 139.429688 111.28125 C 139.429688 104.078125 133.59375 98.242188 126.390625 98.242188 Z M 126.390625 98.242188 " fill-opacity="1" fill-rule="nonzero"/><path fill="#472b29" d="M 126.386719 126.019531 C 118.261719 126.019531 111.648438 119.40625 111.648438 111.28125 C 111.648438 103.152344 118.261719 96.539062 126.386719 96.539062 C 134.515625 96.539062 141.125 103.152344 141.125 111.28125 C 141.125 119.40625 134.519531 126.019531 126.386719 126.019531 Z M 126.386719 99.941406 C 120.132812 99.941406 115.046875 105.027344 115.046875 111.28125 C 115.046875 117.535156 120.132812 122.617188 126.386719 122.617188 C 132.640625 122.617188 137.726562 117.535156 137.726562 111.28125 C 137.726562 105.027344 132.640625 99.941406 126.386719 99.941406 Z M 126.386719 99.941406 " fill-opacity="1" fill-rule="nonzero"/><path fill="#fdfcee" d="M 126.390625 148.164062 C 119.1875 148.164062 113.351562 154.003906 113.351562 161.203125 C 113.351562 168.40625 119.1875 174.242188 126.390625 174.242188 C 133.59375 174.242188 139.429688 168.40625 139.429688 161.203125 C 139.429688 154.003906 133.59375 148.164062 126.390625 148.164062 Z M 126.390625 148.164062 " fill-opacity="1" fill-rule="nonzero"/><path fill="#472b29" d="M 126.386719 175.941406 C 118.261719 175.941406 111.648438 169.328125 111.648438 161.203125 C 111.648438 153.078125 118.261719 146.464844 126.386719 146.464844 C 134.515625 146.464844 141.125 153.078125 141.125 161.203125 C 141.125 169.328125 134.519531 175.941406 126.386719 175.941406 Z M 126.386719 149.863281 C 120.132812 149.863281 115.046875 154.949219 115.046875 161.203125 C 115.046875 167.457031 120.132812 172.542969 126.386719 172.542969 C 132.640625 172.542969 137.726562 167.457031 137.726562 161.203125 C 137.726562 154.949219 132.640625 149.863281 126.386719 149.863281 Z M 126.386719 149.863281 " fill-opacity="1" fill-rule="nonzero"/><path fill="#fdfcee" d="M 149.863281 122.578125 C 142.660156 122.578125 136.824219 128.414062 136.824219 135.617188 C 136.824219 142.820312 142.660156 148.65625 149.863281 148.65625 C 157.066406 148.65625 162.902344 142.820312 162.902344 135.617188 C 162.902344 128.414062 157.066406 122.578125 149.863281 122.578125 Z M 149.863281 122.578125 " fill-opacity="1" fill-rule="nonzero"/><path fill="#472b29" d="M 149.859375 150.359375 C 141.734375 150.359375 135.121094 143.746094 135.121094 135.617188 C 135.121094 127.492188 141.734375 120.878906 149.859375 120.878906 C 157.988281 120.878906 164.597656 127.492188 164.597656 135.617188 C 164.597656 143.75 157.988281 150.359375 149.859375 150.359375 Z M 149.859375 124.285156 C 143.605469 124.285156 138.519531 129.367188 138.519531 135.621094 C 138.519531 141.875 143.605469 146.964844 149.859375 146.964844 C 156.113281 146.964844 161.199219 141.875 161.199219 135.621094 C 161.199219 129.367188 156.113281 124.285156 149.859375 124.285156 Z M 149.859375 124.285156 " fill-opacity="1" fill-rule="nonzero"/><path fill="#fdfcee" d="M 102.921875 122.578125 C 95.71875 122.578125 89.882812 128.414062 89.882812 135.617188 C 89.882812 142.820312 95.71875 148.65625 102.921875 148.65625 C 110.125 148.65625 115.960938 142.820312 115.960938 135.617188 C 115.960938 128.414062 110.125 122.578125 102.921875 122.578125 Z M 102.921875 122.578125 " fill-opacity="1" fill-rule="nonzero"/><path fill="#472b29" d="M 102.921875 150.359375 C 94.796875 150.359375 88.183594 143.746094 88.183594 135.617188 C 88.183594 127.492188 94.796875 120.878906 102.921875 120.878906 C 111.050781 120.878906 117.664062 127.492188 117.664062 135.617188 C 117.664062 143.75 111.050781 150.359375 102.921875 150.359375 Z M 102.921875 124.285156 C 96.667969 124.285156 91.585938 129.367188 91.585938 135.621094 C 91.585938 141.875 96.667969 146.964844 102.921875 146.964844 C 109.175781 146.964844 114.261719 141.875 114.261719 135.621094 C 114.261719 129.367188 109.175781 124.285156 102.921875 124.285156 Z M 102.921875 124.285156 " fill-opacity="1" fill-rule="nonzero"/></svg>